<?xml version="1.0" standalone="no"?>
<!DOCTYPE svg PUBLIC "-//W3C//DTD SVG 20010904//EN"
 "http://www.w3.org/TR/2001/REC-SVG-20010904/DTD/svg10.dtd">
<svg version="1.0" xmlns="http://www.w3.org/2000/svg"
 width="564.000000pt" height="798.000000pt" viewBox="0 0 564.000000 798.000000"
 preserveAspectRatio="xMidYMid meet">

<g transform="translate(0.000000,798.000000) scale(0.100000,-0.100000)"
fill="#000000" stroke="none">
<path d="M0 3990 l0 -3990 2820 0 2820 0 0 3990 0 3990 -2820 0 -2820 0 0
-3990z m4346 3893 c19 -101 108 -131 97 -32 -5 39 -5 39 30 39 40 0 55 -14 37
-35 -6 -8 -9 -18 -6 -24 3 -5 1 -11 -5 -13 -7 -2 -5 -9 5 -17 14 -12 16 -11
16 8 0 12 7 24 16 28 8 3 13 12 10 20 -8 19 40 36 78 27 17 -4 39 -8 49 -9 9
-1 23 -10 30 -20 13 -17 15 -17 30 5 16 23 37 20 37 -6 0 -20 18 -17 32 6 14
23 34 26 41 8 3 -10 7 -10 20 0 9 8 25 11 37 7 13 -4 20 -2 20 7 0 10 2 10 9
-1 6 -8 16 -11 27 -7 16 6 16 5 -1 -14 -19 -21 -19 -23 -2 -35 9 -6 17 -17 17
-24 0 -6 5 -11 10 -11 6 0 10 6 10 13 0 11 10 12 43 7 23 -3 48 -10 55 -14 7
-4 12 -1 12 8 0 8 -6 16 -12 19 -7 3 5 4 27 2 63 -4 75 6 29 26 -37 16 -37 18
-11 18 17 1 27 6 27 16 0 18 12 19 28 3 9 -9 17 -9 34 -1 56 28 165 35 191 14
11 -9 21 -11 25 -6 10 14 59 18 67 5 3 -6 10 -8 14 -5 5 2 21 -20 37 -51 23
-44 26 -57 15 -63 -8 -5 -11 -17 -7 -29 4 -13 1 -22 -9 -26 -9 -3 -14 -10 -10
-15 3 -6 13 -7 21 -4 14 5 15 3 5 -16 -10 -17 -9 -28 3 -52 11 -22 13 -37 6
-49 -6 -11 -6 -21 -2 -24 11 -7 23 -136 15 -165 -4 -16 -9 -19 -18 -11 -10 8
-15 8 -21 -1 -4 -7 1 -16 10 -21 12 -7 16 -17 12 -33 -3 -13 -1 -27 4 -30 8
-5 8 -11 0 -20 -6 -7 -8 -20 -4 -29 4 -12 0 -16 -15 -16 -12 0 -21 -4 -21 -10
0 -5 6 -7 13 -5 6 3 17 -7 24 -21 15 -33 5 -55 -48 -106 -23 -21 -35 -39 -29
-43 6 -4 9 -22 7 -41 -3 -19 -1 -34 3 -34 5 0 18 -20 30 -45 20 -41 20 -46 6
-61 -20 -19 -20 -19 1 -50 14 -22 15 -31 5 -56 -7 -19 -8 -37 -3 -47 7 -11 1
-21 -22 -38 -17 -13 -37 -23 -45 -23 -7 0 -11 -4 -8 -9 3 -5 15 -7 26 -4 17 5
19 0 20 -43 0 -27 1 -57 1 -66 0 -10 7 -18 15 -18 21 0 13 -64 -11 -90 -16
-17 -17 -26 -8 -49 6 -18 7 -34 1 -45 -5 -10 -6 -25 -2 -34 4 -9 6 -21 5 -27
-1 -5 4 -14 11 -20 7 -5 14 -23 15 -38 1 -25 -2 -28 -23 -23 -34 9 -30 -7 7
-23 22 -10 28 -18 23 -30 -4 -9 -7 -26 -8 -38 -1 -12 -6 -27 -13 -34 -9 -9 -8
-17 4 -36 9 -14 18 -38 20 -54 2 -24 -1 -29 -15 -27 -12 2 -18 -5 -20 -27 -2
-23 0 -26 7 -15 9 13 13 12 31 -7 24 -26 25 -33 6 -33 -8 0 -17 -6 -20 -12 -5
-10 -7 -10 -12 0 -3 6 -12 12 -19 12 -8 0 -19 8 -24 18 -9 14 -10 13 -11 -11
0 -23 7 -31 35 -43 29 -12 35 -19 35 -45 0 -19 9 -38 24 -52 l23 -22 -18 -35
c-22 -39 -24 -60 -8 -60 13 0 3 -68 -12 -87 -6 -6 -7 -22 -4 -35 4 -17 -1 -29
-19 -46 -27 -22 -39 -65 -13 -44 12 10 57 6 57 -5 0 -9 -29 -33 -39 -33 -19 0
-12 -17 9 -23 23 -6 26 -29 8 -49 -14 -14 -16 -82 -3 -111 5 -11 2 -24 -9 -36
-20 -22 -12 -47 16 -54 15 -4 18 -11 13 -29 -10 -32 -15 -35 -25 -18 -8 12
-10 10 -10 -7 0 -13 5 -23 10 -23 6 0 10 -22 10 -49 0 -35 4 -51 15 -55 11 -4
14 -13 9 -30 -3 -13 -1 -27 4 -30 7 -4 7 -18 2 -39 -5 -17 -8 -52 -8 -77 1
-25 -2 -54 -5 -65 -4 -11 -9 -49 -12 -85 -2 -36 -9 -66 -15 -68 -5 -2 -10 -12
-10 -23 0 -10 -7 -19 -15 -19 -8 0 -15 -4 -15 -9 0 -14 18 -23 24 -12 3 5 14
7 24 5 24 -7 30 -109 6 -118 -8 -3 -13 -10 -9 -15 3 -6 12 -8 19 -5 20 8 23
-13 13 -93 -6 -52 -13 -73 -23 -73 -18 0 -8 -51 13 -63 18 -11 17 -81 -2 -97
-11 -9 -12 -17 -5 -30 6 -10 7 -25 5 -33 -3 -7 1 -20 10 -27 14 -12 13 -14 -4
-26 -26 -19 -25 -84 1 -84 23 0 23 -5 -3 -46 -11 -19 -17 -34 -14 -34 4 0 2
-6 -4 -14 -11 -14 -10 -37 4 -69 9 -21 -17 -63 -45 -72 -23 -7 -27 -25 -5 -25
17 0 9 -31 -12 -43 -7 -4 -13 -18 -13 -31 0 -13 -7 -29 -15 -36 -12 -10 -13
-15 -4 -21 17 -10 2 -42 -16 -35 -22 8 -20 -53 2 -69 15 -11 15 -15 4 -29 -7
-9 -9 -16 -3 -16 5 0 22 -16 37 -36 34 -44 23 -55 -47 -50 -33 2 -48 0 -48 -9
0 -19 12 -25 31 -14 16 8 19 6 19 -11 0 -11 5 -20 10 -20 6 0 10 -7 10 -16 0
-11 -5 -14 -16 -10 -9 4 -23 1 -31 -6 -12 -10 -11 -14 9 -30 20 -15 20 -18 5
-18 -14 0 -17 -8 -16 -37 1 -21 -2 -50 -6 -65 -5 -18 -3 -28 4 -28 6 0 11 -9
11 -20 0 -11 -3 -20 -7 -20 -7 0 -10 -18 -13 -72 -1 -10 -5 -20 -11 -23 -15
-10 -11 -65 6 -71 17 -7 21 -44 5 -44 -5 0 -10 7 -10 17 0 14 -2 14 -20 -2
-20 -18 -27 -45 -12 -45 4 0 13 5 20 12 9 9 12 9 12 -1 0 -7 6 -11 15 -8 19 8
31 -13 14 -23 -7 -5 -17 -7 -21 -4 -4 3 -23 7 -43 9 -27 4 -35 1 -35 -11 0
-10 -5 -14 -16 -10 -8 3 -25 -3 -36 -14 -24 -22 -82 -30 -60 -8 7 7 12 26 11
43 -1 30 -1 29 -20 -13 -11 -24 -27 -46 -35 -49 -8 -3 -14 -18 -14 -34 0 -31
9 -36 28 -17 9 9 12 9 12 -1 0 -7 4 -10 9 -7 19 12 41 -7 41 -35 0 -37 -22
-38 -57 -3 -14 14 -28 22 -32 19 -3 -4 3 -13 14 -21 11 -8 19 -18 18 -22 0 -4
3 -6 8 -5 13 4 31 -36 23 -49 -5 -7 -11 -3 -16 13 l-9 24 -20 -27 c-17 -23
-23 -26 -39 -16 -25 16 -34 6 -26 -27 6 -22 9 -25 22 -14 8 6 15 10 17 8 28
-50 26 -76 -6 -63 -34 12 -16 -21 31 -60 22 -19 22 -19 20 4 -2 16 3 25 15 28
10 2 17 -3 17 -12 0 -8 5 -18 11 -22 9 -5 10 1 5 20 -4 15 -2 26 4 26 5 0 11
-10 11 -22 1 -21 2 -21 6 -3 8 31 19 38 42 26 27 -15 27 -39 -1 -51 l-23 -9
23 0 c12 -1 22 -7 22 -16 0 -7 6 -18 13 -22 31 -20 51 -90 22 -79 -22 8 -9
-44 17 -66 13 -12 17 -24 13 -38 -8 -24 -25 -17 -25 10 0 12 -5 17 -13 14 -8
-3 -18 9 -26 31 -7 19 -18 35 -26 35 -7 0 -15 6 -18 13 -3 9 -7 9 -17 0 -16
-15 -1 -38 25 -38 13 0 20 -7 20 -20 0 -15 -6 -19 -22 -17 -26 4 -31 -15 -8
-24 26 -11 16 -24 -18 -24 -40 0 -51 -8 -36 -26 15 -18 3 -34 -26 -34 -13 0
-29 -8 -34 -17 -9 -16 -10 -16 -11 4 0 12 6 24 13 27 8 3 7 9 -7 20 -10 8 -24
12 -30 8 -6 -3 -18 -7 -26 -7 -19 0 -25 -42 -9 -62 11 -13 10 -18 -9 -33 -19
-16 -20 -19 -6 -31 17 -14 51 0 47 19 -1 6 4 13 12 16 17 6 21 -9 5 -19 -11
-7 -4 -25 9 -25 4 0 15 16 24 36 12 23 21 32 30 27 6 -4 21 -6 32 -5 19 2 19
2 -2 -17 -13 -10 -23 -29 -23 -40 0 -12 -7 -24 -15 -27 -8 -4 -15 -10 -15 -15
0 -4 7 -6 16 -2 9 3 19 1 23 -6 6 -9 15 -9 36 -1 43 16 60 -3 38 -44 -30 -59
-33 -66 -33 -85 0 -11 -4 -22 -9 -25 -5 -3 -7 -15 -4 -25 3 -10 0 -22 -6 -25
-6 -4 -11 -15 -11 -25 0 -14 6 -17 25 -13 29 5 32 -4 8 -30 -9 -10 -14 -20
-12 -22 9 -9 59 7 59 19 0 10 5 11 25 2 14 -7 25 -18 25 -26 0 -8 8 -20 18
-27 16 -13 16 -14 -2 -8 -15 6 -17 3 -12 -14 3 -12 9 -32 12 -44 5 -16 3 -20
-9 -15 -23 9 -29 -4 -10 -25 10 -12 12 -18 4 -18 -16 0 -71 -60 -71 -77 0 -7
5 -13 11 -13 14 0 39 -26 39 -41 0 -15 -48 -79 -60 -79 -5 0 -12 20 -15 43 -9
61 -16 70 -46 58 -17 -7 -19 -10 -6 -10 22 -1 22 -27 0 -37 -10 -4 -21 -7 -24
-6 -13 2 -20 -51 -9 -58 6 -4 18 -19 25 -33 12 -23 12 -27 -1 -27 -8 0 -14 -8
-14 -17 0 -13 3 -14 12 -5 17 17 28 15 28 -5 1 -10 7 -31 15 -48 13 -30 13
-30 10 19 l-4 48 36 -7 c54 -10 85 -24 78 -35 -5 -8 -11 -8 -20 0 -8 7 -16 7
-19 2 -8 -14 14 -28 48 -30 16 -1 31 -4 34 -6 8 -9 -10 -26 -27 -26 -9 0 -28
-14 -41 -32 -21 -29 -22 -34 -9 -57 20 -35 40 -37 73 -6 25 23 25 30 2 26 -5
-1 -12 3 -16 9 -8 13 37 67 47 57 3 -4 7 -41 7 -82 1 -70 -2 -80 -27 -76 -11
2 -19 -24 -15 -51 4 -23 5 -23 16 5 14 33 32 35 32 3 0 -13 7 -29 15 -36 8 -7
12 -17 9 -22 -4 -6 -1 -14 6 -18 9 -5 9 -9 1 -14 -6 -4 -15 4 -21 18 -6 17
-17 26 -32 26 -17 0 -19 -3 -10 -12 9 -9 7 -14 -6 -24 -11 -9 -13 -14 -4 -15
6 -1 17 -3 22 -4 6 -1 15 -3 21 -4 5 0 7 -6 4 -11 -8 -13 -97 -9 -107 5 -4 5
-13 -5 -20 -22 -14 -33 -33 -33 -39 1 -5 27 -29 33 -29 7 0 -12 -6 -21 -15
-21 -19 0 -19 -5 2 -30 12 -14 20 -16 29 -9 9 7 16 4 24 -11 9 -16 15 -19 23
-11 6 6 21 11 34 11 27 0 29 7 6 32 -22 25 -8 36 25 17 36 -19 40 -54 10 -70
-13 -7 -27 -12 -32 -11 -5 2 -16 0 -24 -3 -12 -4 -12 -9 2 -30 9 -13 16 -36
16 -51 0 -23 3 -25 25 -20 28 7 33 -1 10 -18 -20 -15 -9 -80 11 -72 11 4 13
-1 8 -19 -5 -20 -2 -25 20 -31 15 -3 36 -4 47 -1 18 5 20 2 14 -21 -8 -33 -4
-29 -39 -38 -26 -6 -28 -5 -21 16 7 23 7 23 -18 4 -15 -11 -31 -31 -38 -46
-13 -31 -29 -37 -29 -12 0 11 -6 15 -20 11 -11 -3 -23 -1 -26 5 -3 5 -12 7
-20 4 -11 -4 -13 1 -8 19 5 19 2 25 -9 25 -9 0 -20 -6 -24 -14 -4 -8 -19 -16
-33 -18 -20 -2 -25 1 -25 19 0 11 -3 25 -7 29 -5 4 -8 -2 -8 -14 0 -14 -6 -22
-17 -23 -10 0 -26 -2 -36 -4 -10 -2 -17 2 -16 8 1 7 1 23 0 36 -1 22 -2 23
-18 9 -10 -9 -24 -13 -30 -11 -20 7 -15 -8 10 -35 17 -20 18 -24 5 -19 -11 4
-21 0 -28 -11 -6 -11 -12 -13 -17 -6 -5 6 -17 14 -28 18 -19 7 -19 8 -2 21 13
9 19 27 19 59 1 30 6 47 16 51 11 4 12 8 2 20 -6 8 -9 19 -5 25 8 13 -7 13
-55 -2 -41 -13 -50 -39 -19 -59 12 -8 11 -11 -3 -23 -26 -19 -22 -36 8 -36 14
0 23 4 19 10 -3 6 1 10 9 10 26 0 18 -18 -16 -34 -28 -14 -33 -14 -48 -1 -9 8
-26 15 -39 15 -27 0 -35 19 -21 54 10 28 5 28 -29 2 -7 -6 -19 -11 -25 -12 -6
0 -17 -2 -24 -2 -10 -2 -7 -11 8 -32 l21 -30 -25 0 c-18 0 -30 -9 -42 -31 -11
-23 -21 -30 -35 -26 -15 4 -23 -1 -29 -19 -11 -29 -39 -31 -71 -5 -18 15 -21
22 -13 31 9 9 17 8 33 -2 11 -7 21 -16 21 -20 0 -5 5 -8 10 -8 17 0 11 18 -12
40 -13 12 -23 31 -23 43 0 18 -5 22 -27 20 -16 -1 -28 3 -28 8 0 6 -4 8 -9 4
-5 -3 -12 -1 -16 5 -3 5 1 10 9 10 19 0 21 16 4 26 -7 4 -22 -5 -37 -23 -21
-25 -32 -30 -54 -26 -33 6 -45 22 -26 34 23 14 4 19 -24 6 -19 -8 -25 -17 -21
-29 4 -12 0 -18 -11 -18 -11 0 -15 5 -11 15 7 20 -4 18 -31 -4 -13 -11 -23
-29 -23 -41 0 -12 -4 -18 -10 -15 -5 3 -10 16 -10 28 0 22 -8 24 -75 18 -24
-2 -17 -17 18 -41 31 -21 31 -21 5 -16 -17 4 -28 1 -31 -7 -2 -7 -13 -1 -30
18 -20 24 -28 28 -38 18 -10 -10 -10 -13 -1 -13 7 0 12 -5 12 -11 0 -14 -42 0
-56 19 -9 12 -15 12 -34 2 -18 -9 -24 -9 -30 0 -8 13 -50 5 -50 -11 0 -5 -8
-18 -17 -29 -23 -26 -45 -8 -36 29 6 23 5 25 -10 12 -9 -7 -15 -17 -12 -21 8
-13 -31 -41 -49 -34 -12 5 -19 0 -23 -15 -5 -21 -6 -21 -25 -4 -28 25 -55 26
-61 2 -4 -13 -10 -18 -18 -13 -7 4 -23 7 -37 8 -14 1 -27 7 -30 15 -3 8 0 11
6 7 6 -3 13 -2 17 4 3 5 4 10 1 10 -2 0 -11 3 -20 6 -12 4 -16 0 -16 -15 0
-15 -7 -21 -22 -22 -13 -1 -39 -3 -58 -4 -54 -2 -58 -4 -62 -20 -3 -13 -6 -13
-32 0 -27 14 -31 14 -62 -10 -37 -28 -64 -32 -64 -10 0 15 -34 55 -46 55 -3 0
-3 -11 0 -24 7 -29 -9 -44 -22 -20 -8 14 -14 15 -42 5 -18 -6 -48 -11 -66 -11
-18 0 -37 -6 -41 -14 -4 -7 -27 -16 -50 -18 -33 -5 -43 -2 -48 10 -4 10 -9 13
-13 6 -4 -6 -18 -14 -32 -17 -19 -5 -30 0 -47 21 -22 26 -24 26 -37 9 -9 -12
-22 -17 -33 -13 -10 3 -24 2 -32 -3 -19 -12 -52 -1 -59 20 -7 17 -10 17 -35 4
-27 -14 -91 -11 -112 6 -6 4 -33 6 -60 5 -37 -3 -57 1 -76 15 -17 12 -37 17
-62 13 -20 -2 -39 1 -42 6 -9 14 -25 2 -25 -18 0 -15 -8 -17 -45 -16 -25 1
-52 7 -60 14 -10 8 -19 8 -33 1 -16 -8 -21 -7 -26 4 -4 12 -15 14 -46 9 -27
-4 -45 -2 -56 7 -13 11 -17 10 -25 -4 -5 -9 -16 -14 -24 -10 -9 3 -22 0 -30
-7 -8 -7 -15 -9 -15 -5 0 4 -7 2 -15 -5 -8 -7 -13 -16 -10 -20 8 -13 -44 -21
-65 -10 -17 9 -97 6 -107 -4 -2 -2 -20 0 -39 4 -26 6 -34 5 -34 -6 0 -18 -56
-19 -63 -1 -5 14 -22 14 -122 -1 -33 -6 -64 -7 -69 -4 -5 2 -18 5 -30 6 -11 1
-25 11 -31 23 -7 14 -16 19 -24 13 -8 -4 -24 -2 -39 6 -17 9 -31 10 -43 3 -24
-12 -26 -12 -32 11 -3 11 -13 20 -22 20 -11 0 -15 -5 -11 -15 7 -18 -10 -20
-20 -3 -6 9 -10 5 -14 -11 -3 -14 -11 -26 -18 -29 -16 -5 -16 60 0 76 20 20 2
24 -31 8 -41 -22 -51 -20 -51 9 0 25 -13 31 -44 19 -25 -10 -20 -37 5 -29 19
6 20 5 8 -17 -7 -14 -14 -18 -17 -10 -2 6 -8 9 -14 6 -5 -3 -12 3 -15 15 -6
24 -8 25 -34 11 -15 -9 -17 -14 -7 -29 6 -10 8 -26 5 -35 -6 -16 -8 -16 -23
-1 -15 15 -17 14 -30 -2 -13 -17 -16 -16 -42 15 -32 36 -68 39 -86 7 -29 -50
-56 -69 -56 -40 0 22 -17 18 -23 -6 -5 -18 -8 -19 -26 -7 -12 7 -21 18 -21 25
0 7 -5 13 -11 13 -6 0 -8 -8 -4 -19 5 -16 -1 -19 -37 -24 -24 -3 -63 -6 -88
-6 -25 -1 -57 -4 -72 -7 -14 -3 -29 0 -33 5 -8 14 -92 14 -100 0 -5 -6 -11 -4
-19 7 -12 15 -13 15 -19 0 -7 -18 -40 -17 -59 2 -8 8 -17 8 -30 1 -25 -13 -48
-5 -48 18 -1 17 -1 17 -11 1 -16 -28 -37 -22 -31 7 4 22 1 25 -26 25 -24 0
-37 8 -58 35 -18 24 -23 39 -17 48 19 24 23 60 7 72 -12 8 -13 16 -5 38 8 20
8 33 -1 46 -9 15 -9 29 1 62 7 24 14 86 16 139 1 52 5 102 9 111 4 10 1 23 -7
31 -24 23 -25 52 -3 71 18 16 18 21 7 39 -12 19 -11 23 4 34 9 7 14 18 10 23
-10 18 4 48 25 54 26 7 16 37 -12 37 -13 0 -17 4 -11 13 4 6 6 20 5 30 -2 9 2
16 9 15 18 -5 19 94 0 108 -16 12 -23 54 -9 54 5 0 8 15 6 32 -2 25 -8 33 -22
33 -25 0 -43 49 -26 70 7 8 14 45 15 82 4 88 3 83 19 83 8 0 16 -10 18 -22 3
-20 4 -20 10 -6 4 10 2 23 -5 30 -7 7 -13 27 -12 43 1 17 -2 35 -6 40 -10 14
1 65 13 65 26 0 -20 116 -56 142 -15 10 -16 178 -1 178 15 0 17 89 2 108 -5 7
-7 15 -3 19 3 3 6 1 6 -5 0 -14 39 -16 60 -2 13 8 13 10 -2 10 -40 0 -75 111
-45 142 17 16 20 74 7 119 -6 21 -6 37 0 43 6 6 4 13 -6 20 -23 17 -34 123
-18 163 10 23 11 34 3 39 -8 5 -8 9 1 14 7 4 13 35 15 73 4 78 12 107 31 107
8 0 14 5 14 10 0 6 -6 10 -14 10 -7 0 -19 7 -27 16 -10 13 -10 17 2 24 19 13
18 68 -2 106 -21 38 -14 84 12 84 20 0 26 24 9 35 -5 3 -10 37 -10 76 0 38 -4
69 -9 69 -13 0 -25 76 -14 92 4 7 8 15 8 18 0 3 12 21 26 40 15 19 26 46 25
59 -1 15 5 25 16 26 9 2 24 8 35 13 17 10 17 11 -2 18 -31 11 -55 35 -55 55 0
10 8 23 18 28 16 10 16 10 0 11 -25 0 -23 26 2 33 23 6 27 27 6 27 -20 0 -30
18 -19 33 13 17 15 65 3 72 -13 8 -13 45 0 45 6 0 10 -7 10 -15 0 -19 0 -19
38 1 36 18 38 22 17 50 -8 10 -15 29 -15 42 0 27 -8 28 -26 5 -18 -25 -24 -14
-17 35 6 45 26 56 47 26 10 -14 14 -13 30 5 18 20 18 20 -9 18 -33 -2 -46 20
-14 25 12 2 24 9 27 17 3 10 -2 13 -22 9 -21 -4 -26 -1 -28 16 0 11 -2 27 -2
35 -1 8 -10 17 -21 21 -18 7 -18 9 8 19 38 15 40 14 34 -12 -9 -33 6 -52 29
-38 11 6 14 11 7 11 -7 0 -10 6 -8 13 6 16 -32 60 -45 52 -33 -20 -67 29 -37
54 10 7 12 25 7 61 -6 45 2 68 13 38 2 -7 8 -9 13 -5 4 4 3 17 -4 28 -16 25
-6 42 19 34 15 -5 19 -1 19 14 0 25 0 25 -36 6 -22 -11 -30 -12 -36 -2 -11 17
-10 29 2 22 6 -3 13 1 17 10 3 10 1 20 -4 24 -12 7 -28 51 -24 65 1 5 -2 12
-7 15 -17 11 -19 91 -2 91 5 0 9 -10 7 -21 -1 -12 4 -24 11 -27 9 -3 13 2 11
14 -5 25 8 44 25 38 20 -8 29 12 16 37 -11 20 -12 20 -25 2 -13 -17 -14 -17
-21 2 -4 11 -13 28 -21 37 -13 14 -12 18 6 27 19 11 33 3 37 -21 1 -5 2 -11 3
-14 3 -17 31 22 29 40 -2 15 5 22 30 29 39 12 41 25 5 29 -26 3 -28 6 -25 43
2 41 -15 82 -25 58 -2 -7 -11 -13 -19 -13 -15 0 -17 14 -14 92 1 25 -5 56 -12
68 -12 19 -10 24 9 37 26 18 30 48 8 57 -18 6 -17 86 1 86 12 0 27 40 16 40
-4 0 -19 -14 -34 -32 -25 -30 -27 -31 -28 -11 0 14 -5 21 -13 18 -6 -3 -18 4
-24 14 -11 17 -10 21 7 26 11 4 18 11 15 16 -3 5 1 6 9 3 22 -8 20 13 -1 25
-16 8 -16 14 -5 57 7 26 20 53 30 60 16 11 16 14 -2 33 -15 16 -16 24 -7 35 8
10 9 16 1 21 -5 3 -10 15 -10 26 0 10 -6 19 -14 19 -8 0 -14 10 -15 23 0 12
-2 41 -4 65 -3 44 1 50 22 30 10 -11 15 -9 26 6 8 10 16 24 19 30 3 7 8 6 15
-4 19 -26 12 31 -8 64 -23 40 -49 55 -61 36 -5 -8 -12 -11 -16 -8 -10 11 4 40
16 33 5 -3 10 3 10 14 0 11 9 25 20 31 15 8 18 15 10 28 -5 9 -16 34 -24 54
-12 29 -12 36 -1 32 7 -3 16 -1 19 4 3 6 -1 13 -10 16 -22 9 -6 28 18 20 18
-5 18 -4 8 16 -6 12 -9 29 -5 37 3 9 0 20 -7 24 -9 6 -6 15 12 34 21 22 22 29
12 46 -7 10 -9 30 -6 44 5 20 3 24 -9 20 -8 -4 -17 1 -21 10 -8 21 2 38 19 31
8 -3 13 4 13 20 0 14 7 30 16 37 11 8 15 19 10 31 -5 14 -9 15 -15 4 -6 -9 -9
-8 -9 8 0 11 4 24 9 30 13 14 -10 144 -26 144 -8 0 -13 11 -12 28 1 25 1 25 7
4 l7 -23 17 21 c22 25 22 30 2 30 -11 0 -15 6 -11 20 3 10 1 47 -3 82 -4 35
-4 68 1 73 4 6 4 29 -1 50 -5 22 -11 75 -14 117 -4 64 -3 79 10 86 17 9 12 52
-6 52 -4 0 -6 9 -3 20 3 12 -1 22 -11 26 -25 10 -21 72 7 95 12 10 17 18 11
19 -8 0 -9 12 -2 43 5 23 9 50 9 59 0 9 7 22 15 29 18 15 18 48 -1 55 -8 4
-15 12 -15 20 0 8 -5 14 -10 14 -6 0 -9 15 -7 35 5 43 17 59 17 22 0 -33 13
-35 27 -4 10 21 11 20 18 -15 4 -21 9 -38 12 -38 2 0 13 8 24 19 20 18 24 38
21 98 -2 30 -5 33 -43 39 l-40 7 28 18 c28 19 43 46 36 65 -6 15 -67 11 -88
-6 -11 -9 -22 -11 -32 -4 -22 14 -21 29 3 32 24 3 38 47 28 88 -3 13 -3 24 1
24 11 0 49 -22 60 -35 6 -7 18 -15 28 -18 14 -5 17 -1 17 23 0 16 5 32 11 36
9 5 10 -1 5 -20 -6 -23 -3 -26 18 -26 15 0 30 -8 36 -20 6 -11 22 -23 35 -26
14 -3 25 -12 25 -20 0 -24 23 -15 63 22 27 25 42 33 49 26 7 -7 21 -4 46 11
39 23 154 32 183 14 13 -8 21 -6 34 7 11 11 26 15 39 12 12 -3 40 -6 64 -6 35
0 44 -4 51 -24 5 -13 17 -26 26 -30 25 -9 73 -7 80 3 3 6 17 6 35 -1 22 -7 34
-7 44 1 7 6 22 9 32 5 14 -4 13 -1 -6 15 l-25 21 26 0 c19 0 31 -9 45 -35 16
-30 23 -35 42 -30 15 4 21 2 17 -5 -3 -5 -1 -10 4 -10 6 0 11 5 11 10 0 6 8
10 19 10 10 0 25 10 33 22 13 20 18 21 45 9 16 -6 51 -14 78 -16 30 -3 53 -12
61 -22 8 -11 13 -13 14 -6 0 7 6 10 14 7 17 -6 31 12 16 21 -15 9 -12 25 5 25
8 0 15 -7 15 -15 0 -20 41 -29 105 -22 39 4 57 2 65 -9 9 -10 17 -11 30 -4 15
8 28 3 63 -24 25 -19 48 -32 52 -28 3 4 10 0 15 -8 5 -8 12 -11 17 -7 4 5 1
12 -6 16 -7 5 -10 14 -6 20 5 9 10 9 20 1 10 -8 15 -4 23 17 7 19 11 22 11 10
1 -10 6 -27 11 -38 10 -18 13 -18 32 -5 13 9 32 13 45 10 14 -4 23 -2 23 5 0
6 7 11 16 11 9 0 24 10 35 23 10 12 18 16 19 10 0 -15 -36 -53 -50 -53 -20 0
-9 -21 16 -30 18 -7 24 -15 20 -28 -9 -28 29 -57 67 -53 41 4 60 21 24 21 -17
0 -27 5 -27 15 0 15 13 18 75 19 20 1 30 6 30 16 1 27 14 37 41 32 18 -3 25
-1 20 6 -10 17 27 72 45 67 9 -3 19 1 23 10 3 8 12 15 21 15 8 0 15 4 15 9 0
5 15 5 36 1 44 -10 76 -2 50 12 -9 5 -20 7 -25 3 -13 -8 -24 13 -17 32 5 12 9
13 21 3 8 -7 28 -13 44 -15 34 -2 64 -28 51 -41 -6 -6 32 -7 91 -3 110 8 135
20 159 80 15 36 23 36 45 3 12 -18 20 -23 29 -15 20 16 54 9 61 -14 5 -19 7
-18 35 13 29 31 49 39 64 25 4 -4 23 -8 42 -9 19 -2 41 -7 48 -13 7 -6 15 -9
17 -6 3 2 28 7 57 11 36 4 60 2 81 -9 21 -10 32 -12 40 -4 8 8 11 8 11 -1 0
-7 7 -12 15 -12 8 0 15 6 15 13 0 6 6 1 13 -13 8 -14 12 -44 10 -66 -2 -36 0
-40 20 -40 18 1 22 -4 23 -33 0 -35 24 -61 53 -61 10 1 5 7 -12 16 -23 12 -26
19 -21 42 9 38 12 38 26 6 22 -51 48 -59 48 -15 0 17 -6 31 -16 35 -8 3 -12
11 -9 17 4 6 13 8 21 5 15 -6 53 11 65 28 4 4 10 3 13 -3 10 -16 36 -13 36 4
0 17 2 18 24 9 9 -3 16 -12 16 -20 0 -8 9 -14 19 -14 27 0 35 17 11 23 -11 3
-20 13 -20 22 0 12 5 15 21 10 14 -5 25 -2 30 6 7 11 9 11 9 -2 0 -9 7 -20 16
-23 25 -9 92 14 97 34 3 10 15 23 27 30 20 11 21 10 15 -10 -6 -20 -5 -21 15
-10 12 6 29 13 38 15 9 2 28 7 41 11 17 5 22 4 17 -4 -12 -19 3 -35 20 -21 10
8 14 8 14 0 0 -6 10 -11 23 -11 13 0 29 -6 35 -12 10 -10 14 -8 18 10 4 13 14
22 25 22 23 0 61 20 72 38 5 7 16 11 25 8 9 -3 28 1 42 8 37 20 38 20 46 -21z
m-4179 -25 c-3 -8 -6 -5 -6 6 -1 11 2 17 5 13 3 -3 4 -12 1 -19z m2607 -9 c-9
-10 -21 -19 -26 -19 -15 0 -8 29 9 39 26 14 37 2 17 -20z m-139 1 c3 -5 1 -10
-4 -10 -6 0 -11 5 -11 10 0 6 2 10 4 10 3 0 8 -4 11 -10z m-2525 -35 c0 -8 -4
-15 -10 -15 -5 0 -7 7 -4 15 4 8 8 15 10 15 2 0 4 -7 4 -15z m860 -5 c0 -12
-37 -23 -50 -15 -19 12 -10 22 20 23 17 0 30 -3 30 -8z m-795 -129 c-6 -5 -25
10 -25 20 0 5 6 4 14 -3 8 -7 12 -15 11 -17z m1999 10 c3 -5 -9 -20 -28 -34
l-33 -26 -11 25 c-11 22 -9 24 13 24 13 0 27 5 30 10 8 12 22 13 29 1z m-2044
-81 c0 -5 -4 -10 -10 -10 -5 0 -10 5 -10 10 0 6 5 10 10 10 6 0 10 -4 10 -10z
m74 -9 c4 -5 1 -22 -4 -36 -10 -27 -11 -27 -31 -9 -18 16 -19 19 -5 22 9 2 16
10 16 18 0 16 16 19 24 5z m5332 -579 c-11 -10 -15 4 -8 28 l7 25 3 -23 c2
-13 1 -26 -2 -30z m44 -182 c0 -5 -4 -10 -10 -10 -5 0 -10 5 -10 10 0 6 5 10
10 10 6 0 10 -4 10 -10z m-5453 -377 c-3 -10 -5 -4 -5 12 0 17 2 24 5 18 2 -7
2 -21 0 -30z m-7 -742 c0 -20 -17 -37 -27 -28 -7 8 7 47 18 47 5 0 9 -9 9 -19z
m-40 -221 c0 -5 -7 -10 -15 -10 -8 0 -15 5 -15 10 0 6 7 10 15 10 8 0 15 -4
15 -10z m5500 -55 c0 -8 -4 -15 -9 -15 -13 0 -22 16 -14 24 11 11 23 6 23 -9z
m-5456 -356 c-10 -16 -24 -9 -24 12 0 18 2 19 15 9 8 -7 12 -16 9 -21z m6
-215 c0 -8 -4 -12 -10 -9 -5 3 -10 10 -10 16 0 5 5 9 10 9 6 0 10 -7 10 -16z
m-26 -749 c-4 -8 0 -22 7 -31 11 -14 10 -18 -6 -30 -27 -20 -38 -17 -31 9 3
12 6 32 6 45 0 13 6 22 15 22 9 0 12 -6 9 -15z m46 -95 c0 -5 -7 -13 -17 -18
-12 -7 -15 -18 -10 -46 3 -20 2 -36 -4 -36 -5 0 -9 6 -9 14 0 8 -6 16 -12 19
-10 3 -10 8 1 21 13 15 13 19 1 26 -11 7 -9 11 10 19 32 13 40 13 40 1z m-50
-240 c-9 -6 -19 -5 -25 1 -6 6 -5 13 5 19 9 6 19 5 25 -1 6 -6 5 -13 -5 -19z
m80 26 c0 -3 -4 -8 -10 -11 -5 -3 -10 -1 -10 4 0 6 5 11 10 11 6 0 10 -2 10
-4z m-70 -126 c0 -5 -4 -10 -10 -10 -5 0 -10 5 -10 10 0 6 5 10 10 10 6 0 10
-4 10 -10z m5376 -354 c10 -8 16 -17 12 -21 -11 -11 -48 5 -48 21 0 18 11 18
36 0z m34 -256 c0 -5 -4 -10 -10 -10 -5 0 -10 5 -10 10 0 6 5 10 10 10 6 0 10
-4 10 -10z m-10 -245 c0 -8 -7 -15 -15 -15 -8 0 -15 7 -15 15 0 8 7 15 15 15
8 0 15 -7 15 -15z m25 -95 c3 -5 -1 -10 -9 -10 -9 0 -19 0 -23 -1 -4 0 -9 4
-11 10 -5 14 35 14 43 1z m-45 -110 c0 -5 -2 -10 -4 -10 -3 0 -8 5 -11 10 -3
6 -1 10 4 10 6 0 11 -4 11 -10z m-122 -79 c3 -8 -1 -12 -9 -9 -7 2 -15 10 -17
17 -3 8 1 12 9 9 7 -2 15 -10 17 -17z m-58 -27 c0 -8 7 -14 16 -14 14 0 14 -3
4 -15 -7 -9 -10 -18 -6 -22 3 -3 6 -1 6 5 0 15 27 16 32 1 5 -15 -49 -69 -65
-66 -7 1 -13 -5 -13 -13 -1 -8 -2 -19 -3 -24 -2 -13 -31 14 -31 29 0 7 12 24
27 39 14 14 23 29 19 33 -4 4 -11 1 -16 -7 -8 -13 -10 -13 -10 1 0 9 6 22 14
28 8 7 12 21 8 33 -3 14 -1 19 6 14 7 -4 12 -14 12 -22z m142 -65 c-5 -11 -11
-20 -15 -20 -4 1 -11 1 -17 1 -18 0 -11 15 13 26 12 7 23 12 24 13 1 0 -1 -8
-5 -20z m22 -131 c3 -13 1 -25 -4 -26 -6 -2 -8 -8 -5 -13 4 -5 -1 -6 -9 -3 -9
3 -16 9 -16 13 1 18 13 51 20 51 4 0 10 -10 14 -22z m-64 -48 c0 -5 -7 -10
-16 -10 -8 0 -12 5 -9 10 3 6 10 10 16 10 5 0 9 -4 9 -10z m-180 -10 c0 -5 -4
-10 -10 -10 -5 0 -10 5 -10 10 0 6 5 10 10 10 6 0 10 -4 10 -10z m140 -80 c0
-5 -4 -10 -10 -10 -5 0 -10 5 -10 10 0 6 5 10 10 10 6 0 10 -4 10 -10z m-66
-382 c-8 -27 -12 -33 -19 -27 -7 8 7 49 17 49 5 0 6 -10 2 -22z m62 -264 c-5
-17 -2 -24 9 -24 8 0 15 -7 15 -15 0 -23 -18 -18 -45 11 -30 32 -30 33 -8 50
24 17 36 7 29 -22z m9 -304 c0 -7 -6 -15 -12 -17 -8 -3 -13 4 -13 17 0 13 5
20 13 18 6 -3 12 -11 12 -18z m75 -35 c0 -9 -9 -15 -21 -15 -18 0 -19 2 -9 15
7 8 16 15 21 15 5 0 9 -7 9 -15z m-57 -375 c6 -24 -2 -25 -29 -5 -16 12 -17
16 -4 24 18 12 26 7 33 -19z m124 -164 c1 -15 1 -27 0 -25 -1 2 -13 17 -27 32
l-25 29 25 -4 c19 -2 25 -9 27 -32z m-27 -106 c0 -5 -4 -10 -9 -10 -6 0 -13 5
-16 10 -3 6 1 10 9 10 9 0 16 -4 16 -10z m-10 -45 c0 -8 -4 -15 -9 -15 -5 0
-11 7 -15 15 -3 9 0 15 9 15 8 0 15 -7 15 -15z m46 -210 c-9 -7 -16 -20 -16
-29 0 -10 -4 -15 -8 -12 -5 3 -7 18 -4 34 3 24 8 29 24 24 19 -5 19 -6 4 -17z
m-66 -35 c0 -5 -2 -10 -4 -10 -3 0 -8 5 -11 10 -3 6 -1 10 4 10 6 0 11 -4 11
-10z m-1040 -90 c0 -5 -4 -10 -10 -10 -5 0 -10 5 -10 10 0 6 5 10 10 10 6 0
10 -4 10 -10z m440 -5 c0 -8 -7 -15 -15 -15 -8 0 -15 7 -15 15 0 8 7 15 15 15
8 0 15 -7 15 -15z m-344 -93 c-15 -15 -16 -13 -16 28 l1 45 15 -29 c14 -26 14
-30 0 -44z m-3332 33 c-25 -19 -35 -19 -28 0 4 8 16 15 27 15 20 0 20 0 1 -15z
m3416 0 c0 -8 -4 -15 -10 -15 -5 0 -10 7 -10 15 0 8 5 15 10 15 6 0 10 -7 10
-15z m165 -5 c3 -5 -1 -10 -9 -10 -9 0 -16 5 -16 10 0 6 4 10 9 10 6 0 13 -4
16 -10z m-1138 -23 c-4 -14 -47 -23 -47 -9 0 13 7 17 30 19 13 1 20 -3 17 -10z"/>
<path d="M4270 7860 c0 -5 7 -10 16 -10 8 0 12 5 9 10 -3 6 -10 10 -16 10 -5
0 -9 -4 -9 -10z"/>
<path d="M3250 7835 c0 -2 5 -15 12 -29 8 -20 14 -23 24 -15 10 8 11 15 1 30
-10 17 -37 27 -37 14z"/>
<path d="M4471 7824 c0 -11 3 -14 6 -6 3 7 2 16 -1 19 -3 4 -6 -2 -5 -13z"/>
<path d="M2850 7820 c-13 -8 -12 -10 3 -10 9 0 17 5 17 10 0 12 -1 12 -20 0z"/>
<path d="M2925 7820 c3 -5 11 -10 16 -10 6 0 7 5 4 10 -3 6 -11 10 -16 10 -6
0 -7 -4 -4 -10z"/>
<path d="M3165 7810 c-3 -5 -1 -10 4 -10 6 0 11 5 11 10 0 6 -2 10 -4 10 -3 0
-8 -4 -11 -10z"/>
<path d="M4530 7810 c0 -5 5 -10 10 -10 6 0 10 5 10 10 0 6 -4 10 -10 10 -5 0
-10 -4 -10 -10z"/>
<path d="M5035 7780 c-3 -5 1 -10 9 -10 9 0 16 5 16 10 0 6 -4 10 -9 10 -6 0
-13 -4 -16 -10z"/>
<path d="M3090 7770 c0 -6 7 -10 15 -10 8 0 15 2 15 4 0 2 -7 6 -15 10 -8 3
-15 1 -15 -4z"/>
<path d="M1295 7760 c3 -5 8 -10 11 -10 2 0 4 5 4 10 0 6 -5 10 -11 10 -5 0
-7 -4 -4 -10z"/>
<path d="M1330 7740 c-6 -12 -9 -24 -7 -27 3 -2 11 5 17 17 6 12 9 24 7 27 -3
2 -11 -5 -17 -17z"/>
<path d="M910 7738 c0 -5 14 -14 31 -20 19 -7 28 -15 25 -24 -4 -10 3 -14 24
-14 17 0 34 -8 42 -19 7 -10 29 -29 48 -42 20 -13 49 -36 65 -52 19 -17 36
-25 48 -21 13 4 20 0 24 -15 6 -22 18 -27 27 -12 3 5 15 7 26 4 11 -3 17 -9
14 -14 -6 -10 40 -12 74 -3 22 6 22 7 -10 30 -17 13 -36 24 -41 24 -6 0 -25
11 -43 25 -18 14 -44 29 -58 35 -16 6 -26 17 -26 30 0 21 -16 28 -22 10 -3
-10 -44 4 -88 29 -42 24 -160 61 -160 49z m335 -158 c3 -5 2 -10 -4 -10 -5 0
-13 5 -16 10 -3 6 -2 10 4 10 5 0 13 -4 16 -10z"/>
<path d="M1085 7726 c11 -8 23 -12 28 -9 13 8 -3 23 -26 23 -20 0 -20 0 -2
-14z"/>
<path d="M1161 7731 c-22 -14 -4 -33 20 -21 11 6 17 15 14 21 -8 11 -16 11
-34 0z"/>
<path d="M2735 7723 c4 -10 11 -29 15 -43 5 -14 17 -47 28 -75 l20 -50 11 43
c7 23 14 42 16 42 2 0 9 -18 15 -40 6 -22 15 -40 19 -40 7 0 29 67 52 159 2 8
-4 17 -14 19 -15 3 -18 0 -13 -16 7 -20 -10 -79 -20 -69 -3 3 -12 22 -19 43
l-12 37 -13 -36 c-15 -49 -30 -47 -30 3 0 38 -1 40 -31 40 -26 0 -30 -3 -24
-17z"/>
<path d="M2420 7726 c0 -2 7 -7 16 -10 8 -3 12 -2 9 4 -6 10 -25 14 -25 6z"/>
<path d="M2620 7712 c-31 -25 -33 -90 -4 -129 19 -24 28 -28 70 -27 37 0 48 4
45 15 -2 8 -6 31 -8 52 -5 31 -9 37 -30 37 -20 0 -22 -3 -13 -19 13 -26 13
-68 -1 -77 -19 -11 -31 12 -36 75 -5 50 -3 62 11 67 9 3 23 0 32 -7 14 -12 16
-11 13 6 -6 27 -49 31 -79 7z"/>
<path d="M2942 7661 c-17 -38 -36 -72 -42 -76 -18 -11 -11 -25 15 -25 20 0 24
5 22 23 -2 18 3 22 23 22 20 0 25 -5 25 -25 0 -20 6 -26 29 -28 24 -3 28 -1
22 15 -4 10 -11 39 -16 64 -10 50 -29 99 -40 99 -4 0 -21 -31 -38 -69z m38
-11 c0 -11 -7 -20 -15 -20 -15 0 -21 21 -8 33 12 13 23 7 23 -13z"/>
<path d="M3680 7719 c0 -5 5 -7 10 -4 6 3 10 8 10 11 0 2 -4 4 -10 4 -5 0 -10
-5 -10 -11z"/>
<path d="M3085 7702 c3 -11 -1 -49 -9 -85 -7 -37 -10 -67 -6 -67 5 0 16 -3 25
-6 12 -5 16 -2 15 12 -4 34 0 54 10 54 6 0 10 -10 10 -23 0 -13 12 -34 26 -48
l26 -24 -7 40 c-4 22 -11 44 -16 49 -4 5 1 16 11 25 13 11 17 24 14 43 -5 21
-14 28 -49 37 -57 14 -57 14 -50 -7z m71 -24 c4 -15 1 -25 -11 -34 -21 -16
-36 -10 -30 11 3 8 7 22 10 30 7 22 23 18 31 -7z"/>
<path d="M3420 7709 c0 -5 5 -7 10 -4 6 3 10 8 10 11 0 2 -4 4 -10 4 -5 0 -10
-5 -10 -11z"/>
<path d="M875 7690 c-3 -5 -1 -10 4 -10 6 0 11 5 11 10 0 6 -2 10 -4 10 -3 0
-8 -4 -11 -10z"/>
<path d="M910 7690 c0 -5 5 -10 11 -10 5 0 7 5 4 10 -3 6 -8 10 -11 10 -2 0
-4 -4 -4 -10z"/>
<path d="M2348 7693 c7 -3 16 -2 19 1 4 3 -2 6 -13 5 -11 0 -14 -3 -6 -6z"/>
<path d="M2452 7679 c-22 -23 -34 -70 -25 -96 10 -29 63 -73 87 -73 38 0 59
34 57 88 -2 52 -26 85 -73 96 -20 5 -32 1 -46 -15z m61 -27 c20 -22 34 -107
19 -116 -18 -11 -38 4 -55 40 -35 72 -9 126 36 76z"/>
<path d="M1275 7680 c-3 -5 1 -10 9 -10 9 0 16 5 16 10 0 6 -4 10 -9 10 -6 0
-13 -4 -16 -10z"/>
<path d="M2310 7669 c0 -5 5 -7 10 -4 6 3 10 8 10 11 0 2 -4 4 -10 4 -5 0 -10
-5 -10 -11z"/>
<path d="M3230 7659 c0 -18 2 -19 15 -9 9 7 18 10 21 7 8 -8 -25 -93 -48 -122
-18 -23 -18 -23 14 -34 40 -14 40 -14 33 8 -3 11 6 44 20 77 24 53 28 57 39
42 17 -23 26 -23 26 0 0 13 -15 23 -53 35 -67 21 -67 21 -67 -4z"/>
<path d="M1860 7657 c0 -19 10 -27 26 -20 11 4 12 9 3 19 -15 18 -29 18 -29 1z"/>
<path d="M1930 7655 c0 -8 7 -15 15 -15 8 0 15 7 15 15 0 8 -7 15 -15 15 -8 0
-15 -7 -15 -15z"/>
<path d="M1837 7640 c3 -11 9 -20 13 -20 5 0 6 9 3 20 -3 11 -9 20 -13 20 -5
0 -6 -9 -3 -20z"/>
<path d="M2224 7611 c-34 -28 -64 -58 -68 -68 -4 -10 10 -1 30 20 20 21 54 50
75 64 22 14 39 27 39 29 0 12 -22 -1 -76 -45z"/>
<path d="M2335 7628 c-30 -17 -30 -17 -7 -34 24 -16 29 -39 11 -49 -12 -8 -49
23 -49 42 0 18 -11 16 -37 -6 -26 -22 -29 -31 -9 -31 17 0 74 -64 90 -101 11
-27 12 -27 35 -10 l23 18 -27 27 c-26 26 -29 51 -6 51 9 0 36 -36 47 -63 1 -1
14 3 30 9 28 11 28 11 8 21 -12 6 -30 28 -39 49 -10 21 -21 39 -26 39 -4 0
-11 11 -16 24 -7 21 -11 23 -28 14z"/>
<path d="M1897 7613 c-4 -3 -7 -11 -7 -17 0 -6 5 -5 12 2 6 6 9 14 7 17 -3 3
-9 2 -12 -2z"/>
<path d="M3370 7595 c-8 -10 -10 -31 -6 -64 5 -38 3 -51 -10 -61 -21 -19 -36
4 -28 45 l6 30 -25 -30 c-24 -28 -27 -52 -6 -40 5 4 12 -1 15 -9 9 -23 60 -20
77 4 11 16 12 31 5 66 -11 50 -7 60 18 50 11 -4 15 -14 12 -30 -4 -21 -3 -23
14 -13 21 14 24 37 4 37 -8 0 -16 4 -18 9 -6 17 -45 22 -58 6z"/>
<path d="M3520 7608 c0 -4 15 -24 34 -43 19 -20 38 -44 41 -55 4 -11 10 -20
15 -20 17 0 -3 35 -47 80 -24 25 -43 42 -43 38z"/>
<path d="M860 7596 c0 -2 7 -7 16 -10 8 -3 12 -2 9 4 -6 10 -25 14 -25 6z"/>
<path d="M2050 7590 c0 -5 5 -10 10 -10 6 0 10 5 10 10 0 6 -4 10 -10 10 -5 0
-10 -4 -10 -10z"/>
<path d="M1980 7570 c0 -5 5 -10 11 -10 5 0 7 5 4 10 -3 6 -8 10 -11 10 -2 0
-4 -4 -4 -10z"/>
<path d="M1870 7515 c0 -14 2 -25 4 -25 2 0 6 11 8 25 3 14 1 25 -3 25 -5 0
-9 -11 -9 -25z"/>
<path d="M2890 7526 c38 -13 45 -13 35 3 -3 6 -21 11 -38 10 l-32 0 35 -13z"/>
<path d="M2692 7523 c-23 -2 -40 -8 -37 -14 4 -5 -4 -9 -17 -9 -13 0 -30 -6
-37 -12 -9 -9 -15 -9 -17 -2 -5 12 -61 6 -70 -7 -11 -19 45 -19 106 0 36 12
72 21 81 21 8 0 24 7 35 15 10 8 15 14 9 13 -5 -1 -29 -3 -53 -5z"/>
<path d="M2790 7518 c0 -5 -4 -7 -9 -3 -5 3 -12 1 -16 -5 -4 -6 18 -9 62 -9
37 1 56 4 41 6 -16 2 -28 8 -28 12 0 5 -11 9 -25 9 -14 0 -25 -5 -25 -10z"/>
<path d="M3070 7501 c-33 -6 -34 -7 -10 -13 16 -5 30 -2 40 7 8 8 12 14 10 14
-3 -1 -21 -5 -40 -8z"/>
<path d="M3161 7481 c13 -11 26 -17 29 -14 6 6 -30 33 -43 33 -5 0 1 -9 14
-19z"/>
<path d="M2073 7468 c-6 -7 -22 -36 -37 -64 -22 -40 -27 -61 -24 -104 2 -29 8
-55 14 -57 7 -2 9 16 6 54 -3 50 0 66 27 117 29 55 36 83 14 54z"/>
<path d="M3620 7472 c0 -5 9 -17 20 -27 20 -18 21 -18 12 5 -9 24 -32 40 -32
22z"/>
<path d="M2462 7458 c6 -18 28 -21 28 -4 0 9 -7 16 -16 16 -9 0 -14 -5 -12
-12z"/>
<path d="M3210 7467 c0 -2 25 -16 55 -32 31 -15 60 -36 66 -46 5 -10 23 -26
40 -35 19 -9 29 -21 25 -29 -3 -8 -1 -17 4 -20 6 -4 10 -12 10 -20 0 -12 -4
-12 -27 1 -36 18 -63 18 -63 0 0 -20 17 -29 23 -14 4 10 7 10 14 1 14 -19 78
-43 100 -37 12 3 24 1 27 -5 11 -18 26 -13 26 9 0 16 -5 19 -28 14 -25 -5 -29
-2 -45 43 -12 32 -31 58 -58 78 -22 17 -47 37 -56 45 -26 24 -113 60 -113 47z"/>
<path d="M2440 7430 c-9 -6 -10 -10 -3 -10 6 0 15 5 18 10 8 12 4 12 -15 0z"/>
<path d="M2378 7406 c-10 -7 -18 -16 -18 -19 0 -3 -18 -25 -41 -49 -22 -24
-43 -55 -46 -71 -7 -35 -17 -41 -44 -26 -19 10 -21 9 -16 -4 7 -18 -40 -57
-66 -57 -19 0 -31 -16 -17 -25 5 -3 32 10 59 28 44 30 55 34 98 30 38 -4 53
-1 66 12 14 13 17 14 17 2 0 -8 -7 -20 -15 -27 -17 -14 -20 -30 -6 -30 13 0
37 41 44 78 8 39 -4 41 -40 8 -33 -31 -44 -25 -40 22 1 29 12 47 45 79 24 24
47 43 53 43 5 0 9 5 9 10 0 14 -22 12 -42 -4z"/>
<path d="M3665 7405 c14 -43 18 -135 6 -135 -7 0 -10 -4 -6 -10 3 -5 12 -7 20
-3 22 8 19 90 -6 133 -11 19 -17 26 -14 15z"/>
<path d="M2445 7390 c3 -5 11 -10 16 -10 6 0 7 5 4 10 -3 6 -11 10 -16 10 -6
0 -7 -4 -4 -10z"/>
<path d="M3105 7326 c-16 -7 -43 -26 -60 -43 -43 -42 -77 -61 -116 -65 -49 -4
-69 -49 -69 -152 l0 -79 45 6 c25 4 56 9 69 13 39 9 53 -27 30 -78 -12 -26
-22 -37 -32 -33 -10 3 -12 0 -8 -10 3 -9 0 -15 -10 -15 -10 0 -14 6 -10 15 3
8 1 15 -3 15 -5 0 -4 11 2 25 7 14 17 23 24 20 19 -6 25 11 9 25 -11 8 -20 8
-34 1 -10 -5 -29 -7 -42 -4 -23 6 -23 6 -7 -18 19 -27 23 -79 5 -79 -6 0 -20
8 -31 18 -20 16 -20 16 -14 -2 6 -14 4 -17 -9 -12 -8 3 -22 6 -30 6 -9 0 -14
11 -14 35 0 29 4 35 22 35 12 0 18 3 14 8 -4 4 -27 7 -50 7 -42 1 -42 0 -29
-25 18 -34 16 -70 -4 -92 -16 -18 -16 -18 0 -12 15 5 17 -1 17 -48 0 -30 -5
-59 -12 -66 -17 -17 -8 -21 37 -13 25 4 35 9 28 14 -19 12 -18 127 1 127 8 0
18 -5 21 -10 4 -7 12 -7 25 0 34 18 40 11 40 -45 0 -41 -4 -56 -17 -64 -22
-12 -21 -13 40 -16 44 -2 47 -1 32 15 -21 23 -21 116 1 124 24 9 26 8 22 -16
-3 -20 3 -23 45 -30 56 -8 87 -31 87 -64 0 -13 5 -26 12 -30 7 -5 9 -2 5 8 -4
11 8 23 41 41 39 21 44 27 28 33 -11 4 -21 2 -27 -7 -6 -10 -9 -8 -9 10 0 20
4 23 25 19 26 -5 34 5 13 18 -13 8 -163 7 -190 -2 -12 -3 -18 0 -18 9 0 19 31
27 113 27 66 0 68 1 61 23 -5 12 -7 38 -6 58 1 23 -4 41 -13 49 -14 12 -15 10
-10 -13 8 -31 -10 -37 -30 -11 -11 15 -14 15 -43 0 -27 -14 -32 -14 -32 -2 0
20 39 46 67 46 20 0 23 5 23 41 0 48 49 143 83 160 12 7 23 13 25 14 3 3 -95
105 -100 105 -2 -1 -16 -7 -33 -14z m0 -102 c18 -12 25 -25 25 -50 0 -39 -32
-74 -88 -93 -20 -8 -49 -26 -64 -42 -37 -40 -55 -37 -31 4 10 17 37 41 58 51
91 44 90 43 90 78 0 26 -4 34 -22 36 -12 2 -32 -3 -45 -10 -22 -12 -28 -14
-55 -17 -7 0 -13 -6 -13 -12 0 -5 5 -7 11 -3 7 4 10 1 7 -7 -4 -12 -58 -27
-58 -16 0 2 7 18 16 35 10 21 23 32 37 32 12 1 33 7 47 15 33 19 55 19 85 -1z
m23 -276 c7 -7 12 -25 12 -41 0 -25 -2 -28 -15 -17 -8 7 -15 18 -15 26 0 20
-19 27 -36 13 -14 -11 -13 -15 8 -31 23 -17 23 -18 2 -18 -33 0 -49 25 -36 55
13 27 58 35 80 13z"/>
<path d="M2509 7277 l-46 -52 42 -37 c51 -45 70 -102 61 -180 -7 -61 -20 -121
-30 -137 -5 -7 4 -11 25 -11 26 0 30 3 21 12 -18 18 -15 38 10 58 20 16 21 21
10 44 -16 36 -15 92 3 141 19 53 19 94 0 102 -22 8 -33 -6 -15 -18 13 -9 13
-10 0 -6 -21 5 -25 36 -5 43 18 7 51 -18 58 -46 2 -10 -4 -37 -14 -60 -31 -70
-26 -163 5 -104 33 61 38 67 47 53 5 -8 23 -14 41 -14 26 0 34 -4 36 -22 2
-15 13 -24 33 -28 16 -4 29 -11 29 -16 0 -5 4 -9 9 -9 5 0 9 43 9 95 1 103 -6
120 -56 130 -37 8 -132 55 -132 66 0 12 -61 49 -80 49 -8 0 -36 -24 -61 -53z
m262 -98 c35 -24 37 -39 7 -39 -21 -1 -22 -2 -5 -14 23 -18 22 -29 -4 -21 -12
4 -24 3 -28 -3 -3 -5 -15 -12 -26 -14 -14 -2 -21 3 -23 20 -2 12 -7 20 -11 18
-4 -3 -5 8 -3 25 3 20 10 29 23 29 11 0 19 5 19 10 0 16 19 12 51 -11z m10
-111 c11 -21 11 -22 -4 -9 -10 7 -17 17 -17 22 0 15 9 10 21 -13z"/>
<path d="M2702 7150 c0 -14 2 -19 5 -12 2 6 2 18 0 25 -3 6 -5 1 -5 -13z"/>
<path d="M3530 7280 c0 -5 5 -10 10 -10 6 0 10 5 10 10 0 6 -4 10 -10 10 -5 0
-10 -4 -10 -10z"/>
<path d="M2135 7260 l-30 -8 33 -1 c17 0 32 4 32 9 0 6 -1 9 -2 9 -2 -1 -16
-5 -33 -9z"/>
<path d="M3598 7263 c12 -2 30 -2 40 0 9 3 -1 5 -23 4 -22 0 -30 -2 -17 -4z"/>
<path d="M3320 7243 c0 -5 12 -21 26 -38 28 -31 28 -29 5 18 -13 25 -31 37
-31 20z"/>
<path d="M2060 7190 c0 -5 7 -7 15 -4 8 4 15 8 15 10 0 2 -7 4 -15 4 -8 0 -15
-4 -15 -10z"/>
<path d="M3232 7186 c-29 -16 -62 -65 -62 -92 0 -35 35 -36 64 -3 15 16 30 29
35 29 10 0 27 39 23 53 -1 4 3 7 8 7 6 0 10 5 10 10 0 14 -50 12 -78 -4z m-4
-91 c-3 -3 -9 2 -12 12 -6 14 -5 15 5 6 7 -7 10 -15 7 -18z"/>
<path d="M2418 7179 c-25 -14 -22 -35 5 -44 14 -4 17 -8 9 -12 -18 -7 15 -43
40 -43 23 0 34 -25 19 -44 -20 -24 0 -24 25 0 21 22 23 29 15 66 -15 64 -71
103 -113 77z"/>
<path d="M3558 7178 c6 -8 9 -18 5 -22 -4 -4 1 -4 10 0 22 8 17 28 -9 33 -15
3 -16 1 -6 -11z"/>
<path d="M2315 7149 c-11 -17 1 -21 15 -4 8 9 8 15 2 15 -6 0 -14 -5 -17 -11z"/>
<path d="M2270 7115 c-15 -18 -40 -19 -75 -3 -22 10 -28 9 -36 -3 -14 -22 -11
-33 6 -19 12 10 19 10 27 2 25 -25 108 -1 108 30 0 13 -17 9 -30 -7z"/>
<path d="M3525 7120 c-4 -7 -22 -10 -41 -8 -21 3 -33 0 -31 -6 2 -6 17 -10 33
-8 16 2 41 4 57 5 15 1 26 7 24 12 -5 15 -34 18 -42 5z"/>
<path d="M3681 7066 c-7 -30 -21 -66 -32 -80 -11 -14 -16 -26 -10 -26 20 0 54
64 59 111 6 65 -2 62 -17 -5z"/>
<path d="M2035 7010 c14 -27 30 -50 37 -50 7 0 5 7 -4 18 -8 9 -21 32 -29 50
-8 17 -17 32 -22 32 -4 0 4 -22 18 -50z"/>
<path d="M2130 7040 c-1 -14 -3 -38 -4 -55 0 -16 -8 -33 -16 -36 -11 -4 -6
-11 18 -23 17 -9 32 -20 32 -25 0 -17 32 -21 52 -7 18 13 9 34 -10 22 -18 -11
-66 52 -57 76 3 7 1 27 -4 43 -9 29 -9 29 -11 5z"/>
<path d="M3215 7030 c3 -5 8 -10 11 -10 2 0 4 5 4 10 0 6 -5 10 -11 10 -5 0
-7 -4 -4 -10z"/>
<path d="M3568 6993 c-2 -27 -8 -37 -22 -39 -21 -3 -56 -34 -41 -35 6 0 22 -2
37 -4 34 -4 35 -2 44 63 4 35 3 52 -4 52 -6 0 -12 -16 -14 -37z"/>
<path d="M2718 7003 c7 -3 16 -2 19 1 4 3 -2 6 -13 5 -11 0 -14 -3 -6 -6z"/>
<path d="M2201 6977 c-13 -17 -4 -50 13 -44 15 5 20 37 9 48 -6 6 -14 4 -22
-4z"/>
<path d="M3496 6964 c-4 -10 -1 -14 6 -12 15 5 23 28 10 28 -5 0 -13 -7 -16
-16z"/>
<path d="M2683 6923 c-11 -22 -10 -28 5 -39 22 -17 36 -2 26 27 -4 13 -7 27
-6 32 5 19 -14 4 -25 -20z"/>
<path d="M2613 6903 c-18 -7 -16 -24 5 -39 17 -13 62 -19 62 -9 0 7 -47 55
-52 54 -2 0 -9 -3 -15 -6z"/>
<path d="M2535 6821 c6 -10 51 -8 62 2 3 4 -10 7 -31 7 -20 0 -35 -4 -31 -9z"/>
<path d="M2583 6782 c-34 -38 -47 -76 -18 -52 8 7 15 9 15 4 0 -5 4 -4 8 3 5
8 21 10 45 6 20 -3 34 -10 31 -15 -4 -6 3 -5 14 1 14 7 19 17 15 27 -3 10 -8
12 -12 5 -5 -7 -19 -6 -44 3 -33 11 -36 14 -22 26 12 10 19 10 27 2 7 -7 17
-12 23 -12 5 0 -1 9 -15 20 -14 11 -27 19 -30 19 -3 0 -20 -17 -37 -37z"/>
<path d="M2507 6803 c-4 -3 -7 -11 -7 -17 0 -6 5 -5 12 2 6 6 9 14 7 17 -3 3
-9 2 -12 -2z"/>
<path d="M3013 6782 c-31 -3 -31 -3 -15 -31 28 -49 13 -61 -70 -55 -46 4 -68
2 -60 -4 10 -7 13 -50 10 -195 l-3 -186 25 23 c14 13 42 33 62 44 21 10 35 22
31 25 -3 4 6 16 21 28 15 12 25 26 23 33 -6 16 12 48 24 41 5 -4 5 -14 -2 -26
-11 -21 -6 -49 8 -49 5 0 17 15 27 34 13 25 23 32 37 29 15 -4 18 -1 13 11 -4
11 0 16 14 16 11 0 22 5 24 12 3 8 10 7 26 -4 44 -31 79 -6 60 42 -4 8 -9 22
-12 30 -3 8 -5 -2 -3 -22 3 -44 0 -48 -13 -13 -5 14 -16 25 -24 25 -14 0 -56
78 -56 105 0 9 -4 14 -9 11 -4 -3 -11 -33 -14 -67 -6 -64 -30 -111 -60 -117
-40 -8 -66 136 -34 195 23 44 12 69 -30 65z m-48 -113 c4 -6 14 -8 22 -5 12 5
14 1 9 -21 -4 -16 -6 -49 -6 -74 1 -54 -16 -107 -31 -92 -14 14 -25 203 -11
203 6 0 14 -5 17 -11z m52 -111 c-3 -8 -6 -5 -6 6 -1 11 2 17 5 13 3 -3 4 -12
1 -19z"/>
<path d="M3260 6756 c5 -14 10 -59 11 -101 1 -41 5 -75 9 -75 9 0 60 58 60 68
0 4 -10 18 -23 32 -12 14 -29 40 -36 58 -16 38 -35 55 -21 18z"/>
<path d="M2472 6740 c-27 -37 -27 -44 0 -70 15 -14 30 -19 45 -15 27 6 29 -5
7 -47 -15 -28 -18 -30 -57 -24 l-42 7 21 -21 c20 -21 22 -21 84 -5 58 15 64
15 72 1 5 -9 15 -16 22 -16 7 0 19 -11 26 -25 7 -14 19 -25 27 -25 7 0 13 -9
13 -20 0 -32 -2 -35 -21 -32 -26 4 -33 -15 -9 -28 17 -9 26 -7 50 10 23 17 30
18 30 7 0 -8 -8 -18 -17 -22 -17 -6 -17 -7 1 -17 13 -7 25 -7 43 3 24 13 25
21 8 62 -4 10 -3 17 4 17 6 0 11 -6 11 -13 0 -18 36 -51 43 -40 8 12 -4 63
-14 63 -5 0 -9 13 -9 29 0 47 -20 88 -55 115 -19 14 -38 26 -43 26 -5 0 -17 9
-27 20 -10 11 -24 20 -32 20 -7 0 -13 5 -13 10 0 13 -57 13 -65 0 -3 -6 4 -9
18 -8 29 3 100 -38 150 -87 37 -36 37 -36 20 -60 -21 -28 -31 -31 -39 -10 -4
8 -10 13 -15 10 -4 -3 -5 -13 -2 -22 4 -11 2 -14 -8 -11 -22 7 -23 45 -1 57
15 8 21 7 26 -4 3 -8 10 -15 16 -15 5 0 2 13 -8 30 -22 35 -72 77 -72 60 0
-10 -3 -10 -14 0 -22 17 -60 8 -71 -17 -11 -27 -30 -31 -22 -5 20 62 20 62 3
56 -11 -4 -16 -1 -16 12 -1 18 -1 18 -11 2 -13 -23 -26 -23 -39 2 -8 14 -8 26
0 41 18 32 6 32 -18 -1z"/>
<path d="M2797 6690 c-20 -4 -41 -11 -45 -15 -4 -5 1 -5 11 -2 10 4 34 7 53 7
19 0 34 5 34 10 0 6 -3 9 -7 9 -5 -1 -25 -5 -46 -9z"/>
<path d="M2425 6680 c-3 -5 -1 -10 4 -10 6 0 11 5 11 10 0 6 -2 10 -4 10 -3 0
-8 -4 -11 -10z"/>
<path d="M3536 6643 c-3 -4 -6 -16 -6 -27 0 -16 3 -18 9 -7 5 8 16 11 31 6 16
-5 21 -3 18 5 -5 15 -43 31 -52 23z"/>
<path d="M2150 6601 c0 -5 5 -13 10 -16 6 -3 10 -2 10 4 0 5 -4 13 -10 16 -5
3 -10 2 -10 -4z"/>
<path d="M3502 6554 c-12 -20 -17 -34 -10 -31 7 2 21 0 32 -5 26 -14 40 11 20
34 -15 15 -14 16 5 11 12 -3 21 -1 21 6 0 6 -4 11 -9 11 -5 0 -15 2 -23 5 -7
2 -23 -11 -36 -31z m33 -14 c3 -5 2 -10 -4 -10 -5 0 -13 5 -16 10 -3 6 -2 10
4 10 5 0 13 -4 16 -10z"/>
<path d="M3585 6549 c-4 -6 -5 -12 -2 -15 2 -3 7 2 10 11 7 17 1 20 -8 4z"/>
<path d="M2200 6541 c0 -5 5 -13 10 -16 6 -3 10 -2 10 4 0 5 -4 13 -10 16 -5
3 -10 2 -10 -4z"/>
<path d="M2180 6506 c0 -8 5 -18 10 -21 6 -3 10 1 10 9 0 8 -4 18 -10 21 -5 3
-10 -1 -10 -9z"/>
<path d="M3483 6502 c-13 -2 -23 -8 -23 -13 0 -11 40 -12 58 0 18 11 -3 19
-35 13z"/>
<path d="M2242 6459 c-17 -28 -6 -38 14 -13 13 16 15 17 10 2 -7 -22 12 -24
21 -2 3 9 0 20 -8 25 -20 12 -23 12 -37 -12z"/>
<path d="M3240 6470 c-9 -6 -10 -10 -3 -10 6 0 15 5 18 10 8 12 4 12 -15 0z"/>
<path d="M3437 6474 c-8 -9 4 -42 18 -48 9 -3 12 0 9 8 -3 8 3 12 17 12 12 -1
24 5 26 12 3 7 -1 10 -10 6 -9 -3 -24 -1 -35 5 -11 6 -22 8 -25 5z"/>
<path d="M3150 6455 c-8 -9 -8 -15 -2 -15 12 0 26 19 19 26 -2 2 -10 -2 -17
-11z"/>
<path d="M3504 6428 l-19 -23 23 19 c21 18 27 26 19 26 -2 0 -12 -10 -23 -22z"/>
<path d="M2281 6421 c-8 -14 -6 -22 9 -36 10 -9 24 -14 29 -10 6 3 11 1 11 -5
0 -11 29 -46 33 -39 1 2 8 14 15 27 13 23 4 30 -15 11 -8 -8 -13 -7 -18 1 -4
7 -1 16 6 21 7 4 10 11 7 15 -4 4 -19 -1 -33 -10 -27 -18 -35 -11 -8 9 18 13
10 35 -12 35 -8 0 -19 -8 -24 -19z"/>
<path d="M3390 6435 c0 -5 7 -16 16 -26 16 -17 44 -16 44 3 0 5 -5 6 -11 3 -5
-4 -19 1 -30 11 -10 9 -19 13 -19 9z"/>
<path d="M3035 6420 c-3 -5 -1 -10 4 -10 6 0 11 5 11 10 0 6 -2 10 -4 10 -3 0
-8 -4 -11 -10z"/>
<path d="M3087 6408 c-21 -11 -36 -22 -34 -24 7 -7 77 26 77 36 0 12 3 13 -43
-12z"/>
<path d="M3360 6412 c0 -4 5 -13 12 -20 6 -6 8 -15 4 -19 -4 -5 -14 0 -21 11
-13 18 -15 18 -43 -2 -45 -33 -51 -45 -32 -63 11 -10 23 -13 31 -8 10 6 7 10
-11 17 -23 9 -24 11 -6 18 13 5 21 3 24 -4 2 -7 11 -12 19 -12 14 0 14 3 -2
20 -23 26 -11 39 14 16 19 -17 21 -17 39 1 20 18 20 18 -4 36 -13 10 -24 14
-24 9z"/>
<path d="M3420 6360 c-19 -16 -30 -29 -25 -29 6 0 26 13 45 29 19 17 30 30 25
30 -6 0 -26 -14 -45 -30z"/>
<path d="M2973 6360 c-13 -5 -23 -12 -23 -15 0 -9 16 -5 36 10 22 16 19 18
-13 5z"/>
<path d="M2424 6350 c-31 -12 -39 -29 -22 -46 19 -20 45 -8 51 22 5 29 -1 34
-29 24z m11 -29 c-3 -6 -14 -11 -23 -11 -15 1 -15 2 2 15 21 16 32 13 21 -4z"/>
<path d="M3228 6318 c-5 -13 41 -43 50 -33 6 6 -28 45 -39 45 -4 0 -9 -6 -11
-12z"/>
<path d="M3318 6295 c-27 -20 -48 -40 -48 -46 0 -10 30 9 85 55 45 38 17 31
-37 -9z"/>
<path d="M2507 6309 c7 -7 15 -10 18 -7 3 3 -2 9 -12 12 -14 6 -15 5 -6 -5z"/>
<path d="M2426 6249 c16 -17 16 -22 4 -29 -9 -6 -16 -6 -18 0 -2 6 -11 10 -19
10 -14 0 -13 -3 3 -21 10 -11 20 -16 22 -10 2 6 12 11 23 11 23 0 25 23 3 44
-23 24 -40 19 -18 -5z"/>
<path d="M3305 6240 c-3 -5 1 -10 9 -10 42 0 -15 -51 -119 -107 -33 -18 -55
-33 -48 -33 6 0 39 15 73 33 67 35 130 89 130 112 0 17 -35 20 -45 5z"/>
<path d="M2491 6201 c-14 -25 -5 -45 14 -37 8 3 17 -4 20 -15 4 -12 12 -18 21
-15 8 3 14 -1 14 -9 0 -8 3 -15 6 -15 11 0 33 28 27 34 -4 3 -1 6 5 6 6 0 14
-10 18 -22 9 -29 44 -60 60 -54 7 3 14 1 16 -3 5 -13 48 -24 48 -12 0 6 -6 10
-12 9 -16 -4 -17 24 -2 29 7 2 18 -10 25 -27 15 -32 29 -40 29 -15 0 20 17 19
29 -2 5 -10 13 -15 16 -11 4 4 -6 23 -21 44 -28 36 -29 36 -34 13 -5 -19 -7
-21 -12 -7 -10 24 -68 35 -80 14 -13 -24 -31 -20 -18 3 14 27 13 34 -4 28 -8
-3 -16 -3 -18 1 -2 4 -19 15 -37 24 -33 15 -36 15 -49 0 -11 -13 -13 -14 -9
-2 2 8 -6 26 -18 39 l-23 23 -11 -21z"/>
<path d="M3200 6198 c0 -16 -3 -19 -11 -11 -14 14 -61 -7 -54 -24 2 -7 0 -13
-5 -13 -6 0 -10 4 -10 8 0 5 -20 -1 -45 -12 -46 -21 -59 -48 -29 -60 25 -10
34 -7 34 10 0 10 5 14 15 10 12 -4 14 0 9 21 -5 18 -4 24 5 19 6 -4 11 -14 11
-22 0 -8 7 -14 15 -14 8 0 15 7 15 15 0 9 6 15 13 14 23 -3 37 1 37 11 0 5 -6
7 -14 4 -8 -3 -17 0 -21 6 -11 18 -2 20 33 11 37 -11 48 0 30 29 -17 26 -28
26 -28 -2z m-136 -83 c3 -8 1 -15 -4 -15 -6 0 -10 7 -10 15 0 8 2 15 4 15 2 0
6 -7 10 -15z"/>
<path d="M2955 6100 c3 -5 8 -10 11 -10 2 0 4 5 4 10 0 6 -5 10 -11 10 -5 0
-7 -4 -4 -10z"/>
<path d="M2980 6104 c0 -11 34 -33 50 -33 10 -1 6 6 -10 19 -26 20 -40 25 -40
14z"/>
<path d="M2926 6078 c9 -31 22 -37 49 -24 16 7 20 13 12 18 -7 4 -13 3 -15 -2
-6 -17 -20 -11 -27 10 -3 11 -11 20 -16 20 -6 0 -7 -9 -3 -22z"/>
<path d="M2870 6083 c0 -4 12 -20 28 -36 l27 -30 -80 6 c-44 3 -89 8 -100 11
-11 4 -6 0 11 -8 37 -17 136 -22 179 -8 25 9 26 10 8 11 -13 1 -23 5 -23 9 0
11 -35 52 -44 52 -3 0 -6 -3 -6 -7z"/>
<path d="M2610 6070 c0 -10 56 -33 69 -29 6 2 -8 12 -29 21 -22 9 -40 13 -40
8z"/>
<path d="M3053 6059 c-18 -5 -33 -14 -33 -19 0 -14 10 -12 50 10 38 21 33 23
-17 9z"/>
<path d="M157 5423 c-4 -3 -7 -13 -7 -22 1 -13 3 -13 11 2 11 19 8 33 -4 20z"/>
<path d="M162 5010 c-8 -13 -8 -20 -2 -20 6 0 13 7 17 15 9 24 -1 27 -15 5z"/>
<path d="M167 4956 c-6 -15 1 -26 15 -26 4 0 8 9 8 20 0 23 -15 27 -23 6z"/>
<path d="M215 4880 c3 -5 10 -10 16 -10 5 0 9 5 9 10 0 6 -7 10 -16 10 -8 0
-12 -4 -9 -10z"/>
<path d="M220 4840 c-13 -8 -12 -10 3 -10 9 0 17 5 17 10 0 12 -1 12 -20 0z"/>
<path d="M280 4742 c0 -7 -8 -12 -17 -12 -17 -1 -17 -1 0 -11 9 -5 17 -20 18
-32 1 -17 3 -14 12 11 7 24 7 36 -1 44 -9 9 -12 9 -12 0z"/>
<path d="M224 4642 c-18 -12 -25 -42 -9 -42 7 0 17 5 20 10 4 6 16 8 28 4 12
-3 20 -5 17 -3 -3 2 -14 12 -25 21 -11 9 -25 14 -31 10z"/>
<path d="M347 4633 c-13 -12 -7 -23 12 -23 11 0 22 -6 24 -12 4 -10 6 -10 6 0
1 7 -5 20 -13 28 -16 16 -20 17 -29 7z"/>
<path d="M295 4609 c-10 -15 3 -25 16 -12 7 7 7 13 1 17 -6 3 -14 1 -17 -5z"/>
<path d="M500 4590 c0 -5 5 -10 10 -10 6 0 10 5 10 10 0 6 -4 10 -10 10 -5 0
-10 -4 -10 -10z"/>
<path d="M168 4582 c-26 -5 -22 -27 8 -42 21 -12 27 -12 34 0 10 16 3 33 -10
25 -5 -3 -10 1 -12 8 -2 7 -11 11 -20 9z"/>
<path d="M410 4520 c0 -5 5 -10 11 -10 5 0 7 5 4 10 -3 6 -8 10 -11 10 -2 0
-4 -4 -4 -10z"/>
<path d="M5545 3900 c-3 -5 -1 -10 4 -10 6 0 11 5 11 10 0 6 -2 10 -4 10 -3 0
-8 -4 -11 -10z"/>
<path d="M170 3743 c0 -16 5 -19 24 -16 16 3 23 10 19 19 -3 8 -9 14 -15 14
-5 0 -6 -6 -2 -12 5 -9 2 -9 -9 1 -15 12 -17 11 -17 -6z"/>
<path d="M175 3680 c-8 -13 4 -32 16 -25 12 8 12 35 0 35 -6 0 -13 -4 -16 -10z"/>
<path d="M200 3620 c0 -5 5 -10 11 -10 5 0 7 5 4 10 -3 6 -8 10 -11 10 -2 0
-4 -4 -4 -10z"/>
<path d="M280 3580 c-8 -5 -12 -11 -9 -14 3 -3 14 1 25 9 21 16 8 20 -16 5z"/>
<path d="M5345 3480 c-4 -6 -4 -10 -1 -10 2 0 11 -3 20 -6 9 -3 16 -2 16 4 0
14 -28 23 -35 12z"/>
<path d="M5400 3209 c0 -5 5 -7 10 -4 6 3 10 8 10 11 0 2 -4 4 -10 4 -5 0 -10
-5 -10 -11z"/>
<path d="M5195 3150 c-3 -6 1 -7 9 -4 18 7 21 14 7 14 -6 0 -13 -4 -16 -10z"/>
<path d="M130 3000 c0 -5 5 -10 11 -10 5 0 7 5 4 10 -3 6 -8 10 -11 10 -2 0
-4 -4 -4 -10z"/>
<path d="M5277 2990 c-3 -11 -1 -20 4 -20 5 0 9 9 9 20 0 11 -2 20 -4 20 -2 0
-6 -9 -9 -20z"/>
<path d="M5327 2993 c-4 -3 -7 -15 -7 -26 0 -25 13 -14 15 13 2 22 1 23 -8 13z"/>
<path d="M5310 2925 c0 -8 4 -15 10 -15 5 0 7 7 4 15 -4 8 -8 15 -10 15 -2 0
-4 -7 -4 -15z"/>
<path d="M105 2900 c3 -5 8 -10 11 -10 2 0 4 5 4 10 0 6 -5 10 -11 10 -5 0 -7
-4 -4 -10z"/>
<path d="M5090 2510 c0 -5 5 -10 10 -10 6 0 10 5 10 10 0 6 -4 10 -10 10 -5 0
-10 -4 -10 -10z"/>
<path d="M5105 2449 c-17 -7 -18 -8 -2 -8 10 -1 20 -8 23 -16 8 -19 24 -20 24
-1 0 21 -23 34 -45 25z"/>
<path d="M5030 2415 c0 -8 5 -15 10 -15 6 0 10 7 10 15 0 8 -4 15 -10 15 -5 0
-10 -7 -10 -15z"/>
<path d="M5100 2203 c0 -5 4 -14 9 -22 9 -14 31 -7 31 10 0 6 -4 7 -10 4 -5
-3 -10 -1 -10 4 0 6 -4 11 -10 11 -5 0 -10 -3 -10 -7z"/>
<path d="M5076 2185 c4 -8 8 -15 10 -15 2 0 4 7 4 15 0 8 -4 15 -10 15 -5 0
-7 -7 -4 -15z"/>
<path d="M5223 2145 c0 -8 4 -12 9 -9 4 3 8 9 8 15 0 5 -4 9 -8 9 -5 0 -9 -7
-9 -15z"/>
<path d="M5225 2030 c3 -5 11 -10 16 -10 6 0 7 5 4 10 -3 6 -11 10 -16 10 -6
0 -7 -4 -4 -10z"/>
<path d="M5150 2006 c0 -9 7 -12 20 -9 31 8 34 23 6 23 -16 0 -26 -6 -26 -14z"/>
<path d="M5207 1995 c-7 -17 9 -30 18 -15 4 6 11 8 16 5 5 -4 9 -2 9 3 0 6 -7
13 -16 16 -21 8 -21 8 -27 -9z"/>
<path d="M5171 1693 c0 -13 -6 -23 -12 -23 -5 0 -7 -5 -3 -11 9 -16 27 16 21
39 -3 12 -5 11 -6 -5z"/>
<path d="M5145 1596 c-4 -20 -5 -43 -2 -51 4 -8 -3 -21 -16 -30 -19 -13 -19
-15 -4 -15 14 0 17 -5 12 -20 -4 -11 -2 -20 4 -20 6 0 11 10 11 23 0 13 6 32
14 42 10 14 11 25 5 38 -13 23 -4 36 21 30 11 -3 20 0 20 6 0 6 -8 11 -18 11
-10 0 -23 5 -29 11 -9 9 -13 2 -18 -25z"/>
<path d="M5333 1423 c-15 -5 -17 -23 -4 -23 5 0 11 7 15 15 3 8 4 15 3 14 -1
0 -8 -3 -14 -6z"/>
<path d="M5300 1315 c-6 -8 -9 -19 -5 -25 7 -11 34 15 35 33 0 12 -17 8 -30
-8z"/>
<path d="M5177 1303 c-13 -13 -7 -32 8 -27 8 4 15 12 15 20 0 15 -12 19 -23 7z"/>
<path d="M5165 1250 c3 -5 8 -10 11 -10 2 0 4 5 4 10 0 6 -5 10 -11 10 -5 0
-7 -4 -4 -10z"/>
<path d="M145 1050 c-4 -6 -3 -16 3 -22 13 -13 23 4 13 21 -7 10 -10 10 -16 1z"/>
<path d="M5308 678 c-22 -7 -28 -16 -27 -36 2 -24 2 -24 6 -4 4 18 11 22 39
22 24 0 34 5 34 15 0 17 -13 18 -52 3z"/>
<path d="M5339 438 c-7 -15 -6 -58 2 -58 5 0 9 14 9 30 0 25 -6 39 -11 28z"/>
<path d="M5086 415 c-3 -8 -1 -15 4 -15 6 0 10 7 10 15 0 8 -2 15 -4 15 -2 0
-6 -7 -10 -15z"/>
<path d="M5025 390 c-3 -5 1 -10 9 -10 9 0 16 5 16 10 0 6 -4 10 -9 10 -6 0
-13 -4 -16 -10z"/>
<path d="M4880 370 c6 -11 15 -20 20 -20 16 0 11 27 -6 34 -24 9 -26 8 -14
-14z"/>
<path d="M5170 330 c0 -5 7 -10 15 -10 8 0 15 5 15 10 0 6 -7 10 -15 10 -8 0
-15 -4 -15 -10z"/>
<path d="M3990 305 c-10 -12 -10 -18 0 -30 19 -23 27 -18 27 15 0 33 -8 38
-27 15z"/>
<path d="M4072 308 c6 -18 28 -21 28 -4 0 9 -7 16 -16 16 -9 0 -14 -5 -12 -12z"/>
<path d="M4130 291 c0 -12 5 -21 10 -21 6 0 10 6 10 14 0 8 -4 18 -10 21 -5 3
-10 -3 -10 -14z"/>
<path d="M4400 289 c0 -5 5 -7 10 -4 6 3 10 8 10 11 0 2 -4 4 -10 4 -5 0 -10
-5 -10 -11z"/>
<path d="M4910 265 c0 -8 5 -15 10 -15 6 0 10 7 10 15 0 8 -4 15 -10 15 -5 0
-10 -7 -10 -15z"/>
<path d="M5143 263 c-21 -8 -15 -20 12 -25 28 -6 27 -6 19 16 -6 17 -11 18
-31 9z"/>
<path d="M4075 250 c3 -5 8 -10 11 -10 2 0 4 5 4 10 0 6 -5 10 -11 10 -5 0 -7
-4 -4 -10z"/>
<path d="M5383 220 c-3 -11 -9 -20 -14 -20 -5 0 -9 -8 -9 -17 1 -17 1 -17 14
0 7 9 18 17 25 17 6 0 11 9 11 20 0 11 -5 20 -11 20 -6 0 -13 -9 -16 -20z"/>
<path d="M3978 223 c7 -3 16 -2 19 1 4 3 -2 6 -13 5 -11 0 -14 -3 -6 -6z"/>
<path d="M3754 185 c-16 -13 -17 -16 -4 -25 22 -14 25 -13 28 15 2 29 2 29
-24 10z"/>
<path d="M3860 185 c0 -9 9 -15 21 -15 18 0 19 2 9 15 -7 8 -16 15 -21 15 -5
0 -9 -7 -9 -15z"/>
<path d="M3818 183 c7 -3 16 -2 19 1 4 3 -2 6 -13 5 -11 0 -14 -3 -6 -6z"/>
</g>
</svg>
