<?xml version="1.0" standalone="no"?>
<!DOCTYPE svg PUBLIC "-//W3C//DTD SVG 20010904//EN"
 "http://www.w3.org/TR/2001/REC-SVG-20010904/DTD/svg10.dtd">
<svg version="1.0" xmlns="http://www.w3.org/2000/svg"
 width="205.000000pt" height="246.000000pt" viewBox="0 0 205.000000 246.000000"
 preserveAspectRatio="xMidYMid meet">

<g transform="translate(0.000000,246.000000) scale(0.100000,-0.100000)"
fill="#000000" stroke="none">
<path d="M1874 2114 c-32 -26 -86 -65 -119 -87 l-60 -41 39 50 c60 75 64 84
12 29 l-47 -50 25 46 c41 73 30 67 -23 -13 -27 -40 -60 -82 -73 -93 -23 -20
-23 -20 -9 0 7 11 -3 2 -23 -20 -20 -22 -36 -36 -36 -32 0 5 -17 -7 -37 -27
-36 -34 -37 -35 -19 -54 11 -13 14 -22 7 -27 -11 -6 -12 -5 -15 17 -2 22 -23
19 -55 -7 -17 -15 -34 -24 -38 -22 -5 2 -26 -5 -48 -17 -34 -18 -39 -26 -41
-58 -3 -42 -32 -104 -43 -92 -12 14 -195 334 -221 387 -14 27 -29 51 -34 54
-5 4 -6 1 -1 -6 4 -7 -2 -22 -14 -35 -19 -20 -19 -24 -6 -42 8 -10 15 -23 15
-28 0 -6 -6 -2 -13 9 -13 17 -16 15 -37 -23 -13 -23 -26 -39 -30 -37 -3 2 -6
-4 -7 -13 -3 -29 -141 -262 -174 -293 -39 -36 -42 -36 -21 0 16 28 15 31 -2
50 -10 11 -19 36 -20 55 -1 29 -8 40 -43 65 -24 17 -48 31 -53 31 -19 0 -94
42 -128 72 -18 15 -39 25 -45 22 -7 -4 -9 -4 -5 0 3 4 -1 15 -10 24 -9 10 -30
33 -46 52 -20 25 -24 27 -12 8 23 -39 -3 -26 -32 15 -12 17 -35 46 -50 62 -15
17 -23 25 -18 18 5 -8 7 -16 4 -18 -3 -3 -24 19 -48 50 -23 30 -44 55 -47 55
-6 0 76 -118 87 -125 5 -3 10 -1 10 5 0 6 5 8 11 4 8 -5 8 -9 -1 -14 -7 -4 -9
-13 -5 -20 8 -12 -62 37 -155 110 -71 56 -27 8 67 -72 146 -124 145 -123 78
-87 -33 18 -78 44 -100 58 -71 43 -17 -6 72 -66 90 -61 91 -77 2 -44 -74 28
-73 19 1 -15 36 -16 56 -30 49 -34 -8 -6 -8 -9 2 -13 8 -3 -6 -4 -31 -1 -62 8
-33 -12 40 -26 79 -16 91 -20 85 -30 -3 -5 5 -11 17 -13 13 -2 -24 -5 -82 -7
-92 -2 -99 -4 -55 -10 28 -5 65 -6 84 -3 24 4 32 2 27 -6 -4 -6 -17 -11 -29
-11 -12 0 -29 -5 -37 -10 -11 -7 -3 -10 28 -10 26 0 41 -4 37 -10 -10 -15 18
-12 43 6 12 8 30 14 40 12 13 -3 9 -8 -16 -22 -50 -26 -31 -31 24 -6 l48 21
-39 -36 c-38 -35 -31 -39 10 -6 14 11 12 7 -4 -12 -22 -24 -22 -27 -6 -27 17
0 17 -1 0 -20 -22 -24 -14 -25 28 -4 l32 17 -24 -27 c-32 -34 -20 -46 13 -13
14 15 26 22 26 17 0 -5 -4 -11 -8 -14 -10 -6 -9 -36 2 -54 4 -6 4 -18 0 -24
-6 -10 -5 -10 8 -1 12 11 21 9 49 -12 19 -13 44 -29 57 -35 l23 -10 -27 -47
c-15 -27 -32 -54 -37 -61 -5 -7 -7 -15 -4 -19 10 -9 -51 -51 -84 -58 -16 -4
-31 -15 -35 -27 -3 -12 -33 -47 -65 -79 -60 -61 -93 -73 -121 -46 -11 11 -16
12 -25 1 -9 -9 -9 -14 3 -18 9 -3 14 -12 11 -19 -4 -10 3 -12 23 -9 22 3 30
-1 35 -17 8 -27 25 -18 25 13 0 13 11 35 25 50 l25 27 16 -36 15 -36 -82 -142
c-153 -266 -189 -316 -228 -317 -8 0 -11 -3 -8 -7 4 -3 0 -14 -9 -24 -8 -9
-17 -29 -18 -43 -3 -26 -3 -26 16 -10 11 11 15 20 8 24 -6 4 -1 17 15 34 14
16 29 25 32 22 4 -3 -3 -16 -15 -29 -11 -12 -21 -25 -21 -30 0 -4 -8 -21 -16
-37 -14 -28 -14 -30 2 -30 15 0 16 -2 3 -10 -8 -5 -10 -10 -4 -10 5 0 15 5 20
10 14 14 415 15 440 1 46 -25 86 -42 80 -33 -3 5 -19 15 -36 22 -16 7 -30 15
-30 19 0 4 85 6 189 5 167 -1 191 0 197 15 10 23 12 141 2 135 -4 -3 -8 4 -8
16 0 12 4 19 8 16 5 -3 9 25 9 62 1 37 -3 69 -8 72 -4 3 -4 32 0 65 5 33 7 74
5 90 -2 17 -3 37 -3 45 1 8 3 58 4 110 2 52 4 97 5 100 3 7 8 133 9 239 2 138
10 87 13 -75 1 -105 6 -155 15 -170 11 -18 11 -22 1 -27 -11 -4 -12 -26 -6
-103 3 -54 4 -103 0 -108 -10 -17 -11 -125 -1 -131 5 -4 9 -13 9 -21 0 -8 -4
-13 -8 -10 -5 3 -8 -23 -6 -57 5 -97 6 -119 4 -157 -1 -59 1 -85 11 -96 6 -8
72 -10 222 -6 l212 4 -22 -21 c-13 -12 -23 -32 -23 -44 1 -18 3 -17 15 10 16
37 35 44 117 43 35 0 110 2 168 4 91 3 108 1 129 -15 32 -26 49 -24 20 2 l-24
20 32 -4 32 -3 -20 28 c-11 15 -16 28 -11 28 11 0 57 -52 65 -72 2 -7 8 -10
12 -6 4 3 -21 35 -55 70 -46 48 -88 111 -177 268 -64 113 -118 210 -121 215
-3 6 4 2 16 -9 12 -10 19 -23 16 -27 -3 -5 2 -9 11 -9 10 0 13 -5 9 -12 -4 -7
-3 -8 5 -4 13 8 68 -40 58 -50 -8 -9 11 -44 24 -44 6 0 3 7 -5 16 -21 20 -20
28 0 20 15 -6 15 -4 3 11 -7 10 -50 57 -96 104 -46 48 -83 93 -82 100 0 10 2
11 6 1 2 -6 10 -9 15 -6 7 4 8 2 4 -5 -5 -7 11 -29 41 -56 47 -44 82 -62 50
-27 -10 10 -17 34 -17 53 0 26 3 31 11 19 7 -11 9 -6 6 20 -2 19 -16 53 -31
74 -43 63 -29 112 35 118 20 2 33 8 32 16 -2 6 2 12 7 12 6 0 10 7 10 15 0 9
6 18 14 21 8 3 11 15 8 30 -3 16 0 24 9 24 12 0 12 2 1 9 -11 6 -10 11 3 25 9
9 12 16 7 16 -14 0 -40 -44 -46 -76 -3 -15 -17 -39 -31 -53 -22 -22 -35 -26
-107 -29 -46 -1 -102 0 -125 3 -39 6 -45 11 -77 65 -35 59 -39 107 -10 96 8
-3 14 -1 14 5 0 6 5 7 12 3 7 -4 8 -3 4 4 -4 7 -1 21 7 32 13 18 15 19 21 5 3
-9 2 -13 -3 -10 -5 3 -12 1 -15 -4 -4 -5 2 -8 11 -7 10 2 18 9 18 17 0 8 8 13
18 13 20 -2 21 1 6 28 -8 15 -8 19 1 13 8 -5 9 3 4 32 -4 21 -10 40 -14 43 -4
3 -4 14 0 25 6 16 9 13 15 -20 7 -39 30 -75 46 -75 5 0 6 8 2 18 -5 14 -3 15
8 5 7 -7 20 -13 28 -13 10 0 1 14 -22 36 -21 20 -35 39 -32 42 3 3 11 0 17 -6
7 -7 17 -12 23 -12 5 1 -3 12 -20 25 -36 30 -28 42 14 21 16 -9 35 -16 41 -16
20 0 -1 20 -37 35 -41 17 -40 31 1 15 33 -12 106 -13 125 -1 9 6 -8 11 -54 16
-122 13 -130 19 -46 38 71 16 228 83 218 93 -4 4 -59 -9 -137 -33 -8 -3 16 11
53 31 82 44 146 86 129 86 -7 0 -40 -12 -73 -26 -70 -29 -87 -26 -35 5 43 27
152 111 143 111 -3 0 -47 -25 -97 -55 -101 -61 -118 -68 -68 -28 18 15 71 61
118 102 47 41 89 78 95 83 5 4 7 8 4 8 -3 0 -32 -21 -65 -46z m-827 -237 c-20
-30 -32 -31 -47 -2 -12 22 -11 27 6 46 l19 21 18 -23 c15 -19 16 -25 4 -42z
m653 29 c0 -3 -4 -8 -10 -11 -5 -3 -10 -1 -10 4 0 6 5 11 10 11 6 0 10 -2 10
-4z m-609 -191 c2 -49 2 -49 8 -12 l6 38 20 -38 c11 -21 35 -62 53 -91 18 -29
31 -56 28 -61 -3 -4 -27 -16 -53 -26 -26 -10 -52 -22 -57 -26 -6 -5 -16 -9
-23 -9 -10 0 -13 36 -13 163 1 145 2 159 15 137 8 -14 15 -47 16 -75z m-102
-74 l2 -159 -63 26 c-95 41 -93 37 -61 90 15 26 42 73 59 106 19 35 34 53 37
45 3 -8 6 -2 6 12 1 22 8 39 17 39 1 0 3 -72 3 -159z m518 119 c-3 -11 0 -20
6 -20 6 0 8 -3 4 -6 -11 -12 -25 6 -20 26 3 11 8 20 10 20 3 0 3 -9 0 -20z
m-960 -40 c-1 -11 -5 -20 -9 -20 -10 0 -10 4 -2 24 8 22 13 20 11 -4z m40 -13
c-7 -11 -20 -23 -28 -25 -11 -3 -11 -2 -1 6 7 5 15 18 17 28 2 10 4 20 4 22 1
2 6 0 12 -3 7 -5 6 -14 -4 -28z m22 -44 c-4 -22 3 -24 21 -8 11 10 20 15 20
11 0 -15 -26 -32 -47 -32 -17 0 -20 4 -12 18 10 18 20 24 18 11z m54 -53 c4
-15 0 -20 -14 -20 -10 0 -19 -6 -20 -12 0 -10 -2 -10 -6 0 -4 10 -8 10 -21 0
-10 -7 -4 2 12 20 35 37 42 39 49 12z m771 -5 c11 -8 15 -15 9 -15 -7 0 -15 5
-18 10 -3 6 -11 10 -16 10 -6 0 -7 -5 -3 -12 4 -7 3 -8 -5 -4 -11 7 -6 26 7
26 4 0 16 -7 26 -15z m-755 -57 c-2 -2 -17 -14 -34 -28 l-30 -25 29 32 c16 18
32 31 34 28 3 -3 3 -6 1 -7z m541 -67 c0 -6 -4 -13 -10 -16 -5 -3 -10 1 -10 9
0 9 5 16 10 16 6 0 10 -4 10 -9z m-265 -40 c-6 -5 -26 -12 -45 -16 -33 -7 -34
-6 -15 9 21 16 76 23 60 7z m142 3 c-3 -3 -12 -4 -19 -1 -8 3 -5 6 6 6 11 1
17 -2 13 -5z m-255 -27 c-33 -10 -104 -72 -94 -82 3 -3 1 -5 -5 -5 -20 0 -22
13 -6 44 24 49 28 51 85 52 50 1 51 1 20 -9z m467 -29 c18 -29 10 -30 -42 -4
-46 21 -47 23 -25 33 26 11 48 2 67 -29z m40 -71 c13 -20 11 -20 -15 3 -16 14
-33 28 -39 33 -5 5 1 3 16 -3 14 -6 31 -21 38 -33z m-654 13 c-3 -5 -21 -9
-38 -9 l-32 2 35 7 c19 4 36 8 38 9 2 0 0 -3 -3 -9z m17 -22 c-7 -7 -12 -8
-12 -2 0 14 12 26 19 19 2 -3 -1 -11 -7 -17z m528 -13 c20 -14 53 -47 74 -75
66 -87 98 -248 59 -293 -10 -11 -12 -17 -5 -13 6 4 12 3 12 -2 0 -24 -53 -118
-75 -134 -5 -4 -6 -8 -1 -8 6 0 -3 -13 -19 -30 -16 -16 -32 -30 -35 -30 -14 0
-66 267 -75 384 -3 44 -9 84 -12 90 -4 6 2 4 12 -4 17 -14 18 -14 5 10 -7 14
-15 34 -16 45 -2 11 -6 38 -10 59 l-7 39 29 -7 c16 -4 45 -18 64 -31z m-386
-7 c-4 -6 -9 -35 -11 -66 -4 -47 -3 -54 11 -49 13 5 16 -1 16 -31 0 -47 8 -59
44 -68 26 -6 28 -5 21 17 -14 43 -10 75 11 83 28 11 12 -119 -18 -153 l-23
-26 24 20 24 20 -8 -25 c-4 -14 -12 -31 -17 -37 -7 -9 -7 -13 0 -13 12 0 -6
-87 -44 -208 l-27 -83 -26 16 c-34 22 -111 106 -111 123 0 7 -4 11 -9 7 -17
-10 -53 106 -49 162 2 28 -1 49 -6 46 -9 -6 0 48 17 92 6 17 17 34 24 38 7 5
11 12 8 18 -8 12 19 50 47 66 13 7 17 12 10 13 -8 0 5 16 28 35 33 28 45 33
56 24 8 -6 11 -16 8 -21z m-294 -48 c-11 -20 -30 -28 -30 -12 0 11 22 32 32
32 5 0 4 -9 -2 -20z m860 -40 c0 -5 -5 -10 -11 -10 -5 0 -7 5 -4 10 3 6 8 10
11 10 2 0 4 -4 4 -10z m87 -232 c10 -11 11 -18 4 -23 -6 -3 -11 1 -11 9 0 10
-6 13 -15 10 -10 -4 -15 0 -15 13 0 24 13 39 19 21 2 -7 10 -20 18 -30z m23
-61 c76 -74 158 -195 142 -212 -4 -5 -1 -5 5 -1 8 4 24 -10 45 -39 18 -25 37
-44 43 -41 6 2 10 -7 9 -22 -1 -24 -3 -25 -55 -24 -127 4 -292 1 -300 -4 -5
-3 -9 1 -9 9 0 10 -16 17 -47 23 -27 4 -51 7 -54 6 -4 -1 -6 10 -6 23 0 18 2
21 12 12 7 -7 10 -16 7 -21 -3 -5 0 -6 7 -2 9 6 9 11 1 21 -9 11 -7 19 9 36
12 13 21 27 21 32 0 5 6 7 14 4 8 -3 20 2 28 10 11 15 11 16 -5 10 -15 -5 -13
1 9 41 15 26 33 52 41 58 7 6 13 23 13 36 0 36 11 88 19 88 4 0 27 -20 51 -43z
m-1029 -70 c-10 -9 -11 -8 -5 6 3 10 9 15 12 12 3 -3 0 -11 -7 -18z m127 -40
c12 -21 16 -35 10 -31 -7 5 17 -23 54 -61 37 -39 68 -76 68 -83 0 -7 14 -15
30 -18 34 -7 37 -16 15 -34 -12 -10 -19 -10 -27 -2 -7 7 -8 12 -2 12 5 0 -7 8
-26 18 -24 12 -34 23 -32 36 3 18 -81 111 -101 111 -5 0 -14 11 -18 24 -7 18
-6 22 5 18 10 -4 13 -1 10 8 -3 8 -12 11 -21 8 -13 -5 -13 -3 -2 15 7 12 14
20 14 19 1 -1 11 -19 23 -40z m547 -94 c14 -21 15 -27 4 -34 -29 -18 -34 -7
-43 96 l-6 60 14 -48 c8 -26 22 -59 31 -74z m-713 63 c-11 -13 -12 -16 -3 -11
26 15 -21 -39 -65 -75 -29 -23 -43 -43 -44 -60 0 -14 -6 -32 -13 -40 -14 -18
-57 -24 -57 -9 0 16 51 99 61 99 5 0 9 11 9 24 0 14 10 30 25 40 14 9 23 21
20 26 -3 5 0 12 6 16 8 4 9 3 5 -4 -14 -22 14 -12 36 13 16 18 24 22 29 13 5
-7 1 -21 -9 -32z m124 -7 c3 -5 0 -17 -5 -28 -8 -14 -7 -20 3 -24 9 -4 12 0 9
13 -8 29 28 15 76 -29 29 -27 39 -43 35 -57 -4 -15 2 -26 21 -38 15 -10 24
-20 21 -24 -11 -10 -36 -11 -42 -1 -3 5 -15 9 -27 9 -18 0 -19 -2 -7 -10 11
-7 3 -10 -28 -10 -24 0 -41 3 -39 8 3 4 -5 7 -18 7 -13 0 -21 -3 -18 -7 2 -5
-38 -6 -89 -3 -51 3 -104 5 -118 6 -25 0 -25 0 -2 9 22 9 31 30 12 30 -5 0
-10 6 -10 14 0 13 19 26 50 32 8 2 23 13 33 26 19 22 19 22 33 3 13 -18 14
-17 8 11 -5 27 -2 32 30 49 19 10 33 22 30 26 -2 4 5 5 16 2 11 -3 23 -9 26
-14z m637 -44 c4 -8 2 -17 -3 -20 -6 -4 -10 3 -10 14 0 25 6 27 13 6z m-83
-35 c0 -5 -5 -10 -11 -10 -5 0 -7 5 -4 10 3 6 8 10 11 10 2 0 4 -4 4 -10z
m145 -87 c-5 -21 -8 -24 -16 -12 -6 9 -9 10 -9 2 0 -7 -9 -13 -20 -13 -26 0
-25 12 1 36 17 16 22 16 31 4 8 -13 9 -12 5 2 -3 9 -3 19 1 23 10 10 15 -13 7
-42z m-75 -13 c0 -5 -5 -10 -11 -10 -5 0 -7 5 -4 10 3 6 8 10 11 10 2 0 4 -4
4 -10z m173 1 c27 -1 20 -21 -7 -21 -14 0 -28 5 -31 10 -3 6 -11 10 -16 10 -6
0 -7 -4 -4 -10 3 -5 2 -10 -4 -10 -13 0 -22 15 -14 24 4 3 18 4 32 2 14 -2 34
-5 44 -5z"/>
<path d="M629 1603 c-13 -16 -12 -17 4 -4 9 7 17 15 17 17 0 8 -8 3 -21 -13z"/>
<path d="M1215 1138 c9 -15 14 -36 10 -47 -3 -10 -1 -22 5 -26 19 -12 10 52
-11 76 l-20 24 16 -27z"/>
<path d="M1356 1063 c-4 -18 -4 -48 0 -65 6 -28 8 -30 14 -13 4 11 4 40 1 65
l-7 45 -8 -32z"/>
<path d="M682 1085 c0 -16 2 -22 5 -12 2 9 2 23 0 30 -3 6 -5 -1 -5 -18z"/>
<path d="M894 955 c-9 -18 -9 -22 1 -18 7 2 16 -4 18 -14 3 -10 4 -3 2 15 -5
43 -8 46 -21 17z"/>
<path d="M807 872 c-38 -39 -58 -94 -38 -106 7 -5 11 3 11 22 0 18 14 47 35
76 20 25 34 46 32 46 -1 0 -20 -17 -40 -38z"/>
<path d="M1525 870 c3 -19 13 -42 21 -50 15 -14 15 -13 4 9 -7 14 -17 36 -21
50 -8 22 -8 20 -4 -9z"/>
<path d="M1585 770 c10 -11 20 -20 23 -20 3 0 -3 9 -13 20 -10 11 -20 20 -23
20 -3 0 3 -9 13 -20z"/>
<path d="M1628 743 c7 -3 16 -2 19 1 4 3 -2 6 -13 5 -11 0 -14 -3 -6 -6z"/>
<path d="M1381 667 c-13 -21 -12 -21 5 -5 10 10 16 20 13 22 -3 3 -11 -5 -18
-17z"/>
<path d="M1671 654 c0 -11 3 -14 6 -6 3 7 2 16 -1 19 -3 4 -6 -2 -5 -13z"/>
<path d="M1639 603 l-24 -28 28 24 c15 14 27 26 27 28 0 8 -8 1 -31 -24z"/>
<path d="M494 659 c-3 -6 -2 -15 3 -20 5 -5 9 -1 9 11 0 23 -2 24 -12 9z"/>
<path d="M636 652 c-3 -5 -18 -8 -33 -7 -15 1 -19 0 -8 -2 11 -2 25 -11 31
-19 10 -12 12 -10 16 11 5 26 3 31 -6 17z"/>
<path d="M387 643 c-4 -3 -7 -11 -7 -17 0 -6 5 -5 12 2 6 6 9 14 7 17 -3 3 -9
2 -12 -2z"/>
<path d="M658 613 c6 -2 18 -2 25 0 6 3 1 5 -13 5 -14 0 -19 -2 -12 -5z"/>
<path d="M410 589 c0 -5 11 -9 25 -9 14 0 25 2 25 4 0 2 -11 6 -25 8 -14 3
-25 1 -25 -3z"/>
<path d="M949 1963 c-13 -16 -12 -17 4 -4 9 7 17 15 17 17 0 8 -8 3 -21 -13z"/>
<path d="M348 1783 c7 -3 16 -2 19 1 4 3 -2 6 -13 5 -11 0 -14 -3 -6 -6z"/>
<path d="M1680 1770 c-34 -7 -34 -7 -5 -8 17 0 44 4 60 8 27 7 27 8 5 8 -14
-1 -41 -4 -60 -8z"/>
<path d="M371 1004 c0 -11 3 -14 6 -6 3 7 2 16 -1 19 -3 4 -6 -2 -5 -13z"/>
<path d="M87 443 c-4 -3 -7 -11 -7 -17 0 -6 5 -5 12 2 6 6 9 14 7 17 -3 3 -9
2 -12 -2z"/>
<path d="M733 413 c9 -2 25 -2 35 0 9 3 1 5 -18 5 -19 0 -27 -2 -17 -5z"/>
<path d="M44 395 c-10 -8 -14 -15 -8 -15 6 0 17 7 24 15 16 19 9 19 -16 0z"/>
</g>
</svg>
